/* XPM */
static char *result[] = {
/* columns rows colors chars-per-pixel */
"50 50 219 2 ",
"   c #102004",
".  c #1A3C02",
"X  c #1D2C14",
"o  c #24331C",
"O  c #2C2932",
"+  c #551829",
"@  c #7A1F36",
"#  c #4D2639",
"$  c #742538",
"%  c #255507",
"&  c #2E411B",
"*  c #30431E",
"=  c #384A27",
"-  c #3B4629",
";  c #3B5620",
":  c #3F5924",
">  c #495636",
",  c #4D5B3D",
"<  c #496425",
"1  c #4C6728",
"2  c #517B26",
"3  c #5D6035",
"4  c #566F34",
"5  c #677634",
"6  c #697836",
"7  c #532C44",
"8  c #473C47",
"9  c #5A3549",
"0  c #6E2E4C",
"q  c #663B4C",
"w  c #7A3754",
"e  c #4A474A",
"r  c #574954",
"t  c #664657",
"y  c #6F4B54",
"u  c #764A5B",
"i  c #65545B",
"p  c #625B5A",
"a  c #576745",
"s  c #5A6645",
"d  c #647B45",
"f  c #69764B",
"g  c #6F7259",
"h  c #685762",
"j  c #785969",
"k  c #696761",
"l  c #67666B",
"z  c #6D6F6E",
"x  c #756B69",
"c  c #7A6974",
"v  c #79767A",
"b  c #9D2839",
"n  c #852853",
"m  c #893559",
"M  c #903359",
"N  c #A93451",
"B  c #9B3761",
"V  c #B3376C",
"C  c #C23D75",
"Z  c #85465F",
"A  c #B64D57",
"S  c #8B4562",
"D  c #994966",
"F  c #865A67",
"G  c #99566C",
"H  c #AF5172",
"J  c #BB577A",
"K  c #84646B",
"L  c #93656D",
"P  c #866973",
"I  c #8C7475",
"U  c #877F77",
"Y  c #987176",
"T  c #A76876",
"R  c #B0707A",
"E  c #CB4477",
"W  c #CE5270",
"Q  c #E2526F",
"!  c #5C902C",
"~  c #5E8537",
"^  c #769E2E",
"/  c #768E3C",
"(  c #68983B",
")  c #688341",
"_  c #6E8848",
"`  c #778A4F",
"'  c #788D55",
"]  c #758959",
"[  c #788566",
"{  c #81A53C",
"}  c #8EB833",
"|  c #88AA48",
" . c #87A05E",
".. c #858167",
"X. c #8A866D",
"o. c #879868",
"O. c #918B7B",
"+. c #8D907A",
"@. c #92A665",
"#. c #97B26A",
"$. c #9BB769",
"%. c #92A670",
"&. c #E8B95A",
"*. c #DFA774",
"=. c #E6B766",
"-. c #E1AD79",
";. c #E4B97A",
":. c #A7C076",
">. c #B0CD78",
",. c #E8C376",
"<. c #867C84",
"1. c #B27785",
"2. c #D15682",
"3. c #D9688B",
"4. c #C7768B",
"5. c #D0718B",
"6. c #E66589",
"7. c #E57394",
"8. c #E97797",
"9. c #89868B",
"0. c #8D8B8E",
"q. c #968A84",
"w. c #999586",
"e. c #9B998A",
"r. c #978C93",
"t. c #8F9193",
"y. c #989694",
"u. c #9A989B",
"i. c #B4908C",
"p. c #A19F93",
"a. c #A49B9B",
"s. c #9DAE85",
"d. c #ABA387",
"f. c #A8AD8C",
"g. c #A7A598",
"h. c #ABA89F",
"j. c #B8B094",
"k. c #9D9DA1",
"l. c #A89FA3",
"z. c #9FA0A3",
"x. c #A6A5A4",
"c. c #AAABAE",
"v. c #B3ABA6",
"b. c #ACB1AA",
"n. c #B5B3AB",
"m. c #B8B3AD",
"M. c #B9BAAC",
"N. c #B8B8B5",
"B. c #BDBCBC",
"V. c #D48495",
"C. c #CD9095",
"Z. c #E9849B",
"A. c #E98F9D",
"S. c #DDAD93",
"D. c #C2B99D",
"F. c #E0AF8B",
"G. c #E3B787",
"H. c #E3B998",
"J. c #D89EA3",
"K. c #E68BA0",
"L. c #EC8CA2",
"P. c #EA95A2",
"I. c #EA9BA6",
"U. c #F298A7",
"Y. c #CAA7A2",
"T. c #CEA8A5",
"R. c #DCB4AB",
"E. c #C3BDB6",
"W. c #C3BFBA",
"Q. c #DAB9B6",
"!. c #E9A6AB",
"~. c #F0A1A7",
"^. c #F2A4AC",
"/. c #F2AAAE",
"(. c #E3B8A7",
"). c #ECABB1",
"_. c #F3ACB1",
"`. c #E8B8B4",
"'. c #F3B4B3",
"]. c #F4BAB6",
"[. c #F4BBBA",
"{. c #B7CC91",
"}. c #BBC5A5",
"|. c #C8C6B7",
" X c #CDCDB0",
".X c #C5C2BD",
"XX c #E6C4A9",
"oX c #E8C5B9",
"OX c #E5CABB",
"+X c #F4C4BC",
"@X c #F7C9BD",
"#X c #F8D0BF",
"$X c #D3E3B4",
"%X c #BEBFC0",
"&X c #F3BEC3",
"*X c #C5C4C3",
"=X c #CCCAC4",
"-X c #CCCCCB",
";X c #D6CDC5",
":X c #D7D5C7",
">X c #DAD5CC",
",X c #D0CFD1",
"<X c #D9D6D4",
"1X c #E6CCC5",
"2X c #F5C9C5",
"3X c #E7D6CB",
"4X c #EAD2CC",
"5X c #F8D8C5",
"6X c #E8DAD6",
"7X c #F0DDD7",
"8X c #DCE8C4",
"9X c #FAE4CC",
"0X c #E5E2DB",
"qX c #F2E2DD",
"wX c #E9E6E5",
"eX c #F3E9E6",
"rX c #F5F1ED",
"tX c #F7F5F4",
"yX c #FEFDFD",
/* pixels */
"& ; ; ; ; ; < < 3 < < < o o h.x p > 3 f f x f p k k k d > s p > - : ; ; > & ; p 3 < < < < ; ; < < ; ",
"! ; 2 2 2 < 3 5 < ~ ~ 6 < & :X#. . .#.g.w.d. . . .w.0.w.....U ..~ 5 ' ..< & w.#.' ) / ) 5 2 ; < ; 2 ",
"/ ; 2 2 ! ) 2 ) 2 U O.' < & 3Xw. .#.#.p.w. .#. . .h.h.k.w.U O.w.w.#. . .< - >.w.' ~  .' ) / / ) < ; ",
"' ; 2 ! ! / 5 ' ' O.w.+.s & .XO.X.w.h.w.0.w.U U w.k.h.g.w.O.O.w.p.u. . .s - #.' _ y.h.g. . . ./ ) / ",
"/ ; ' '  .' ' O.w.d.x.y.k & #.f l U w.+.U U O.U X.g.u.O.O.U v q.0.O.0.w.s -  .'  .O.p.h.p. . .' ' / ",
"^ ; h.p.w.) ..w.g.h.c.w.s & >.' ' O.g.w.w.w.w.U x O...) ` X.w.y.w.0.w.d.s &  ./ ' O.h.c.c.h.#./ / / ",
"/ ; h.h.w.' ..O.y.h.x.p.s & #./ ' w.w.y.h.h.h.U k k f ) ' ' w.x.h.w.w.g.x & { ) ' '  . .c.c.p. .w.p.",
"#.< p.h.p.U U O.y.x.h.w.f & #. .w...5  . .#.h.w.c f 5 5 ' / +.p.g.y.h.g.p & { ' w.w.d.#.m.h.p.p.h.p.",
" .; O.p.y.w.O.w.y.w.g.#.6 & #.'  .' s ' '  .y.g.' ' / ` ' 6 ' ' ' w.j.' p & >.p. .w.d.W.m.#. .@. .' ",
"{ % ..w.d.g.y.y.w.' #. .- & #./ ~ /  .#.#.>.>.D.$. .>.>.>.{. X{.( >. .5 > & h.j.#.h.W.E.h.#. .! ) ) ",
"! &  .#.>.>X>X>X.X#.^ , & & ' $.o.' f s s > - > & & - > g v.:X}.o.) f ^ 5 X > #.#.D.>X;X>.D. XD. .{ ",
"% % - - e e e e e & & & & & - - o > & - = & & X X X   o g E.4X X+.o X X X         X X X X X X X - - ",
"% & ! < f ..k s 3 ; < ; ; : 4 [ ` , > p k s < > .   ~ o.}.OXH.OX=X+.d [ +.f 4 < & & & & & < ; - - & ",
"< & >. . .#.#.' ..p.#.` O._ s.:X;Xs.'  .#.O.` ) s & $. X1X(.G.H.oX;X}. X<X}..._ ) ) ! ! 5 / ) ; - & ",
"< % >. .O.h.m.h.9..Xg.w.p.N.<X4X4X|.X. .#.d.w...< & :.:XR.-.,.=.H.3X0X6X4XOX%.' O.' / ! /  .) 5 ; & ",
"< & >. .O.w.h.h.t.M.x.g.g.=X6X(.oX>Xh.e.p.g.w.w.k , {.0X0XXXG.H.6XwXrX3XR.3X=Xg.w.' O. .w.U ' / ; & ",
"; & #.O.z ..O.y.g.u.g.g.B.6XOXG.H.1X-Xh.t.O.O.g.+.p.6XrXyX7XR.4XyXyXqXXXG.XX7X>Xn.p.z.h.e. .' 2 1 & ",
"< ; #.w.O.'  .h.n.m.N.*X6XoX-.&.&.S.4X<X.XN.}.W.}.,X6XqXwX<X1XqXyXrX(.-.,.-.(.qX-Xv.#.d.O.' ' 5 < o ",
"2 ; >.d.x.h.j..XW.W.<X6X4XoXG.&.=.(.eXwX*Xc.u.<.v <.l.u.<.<.l.N.<XeX1XG.;.G.OXqXwX}.| ' O. .' d < & ",
"2 & #.' h.M.m.m..X=X<X3X`.7X0XS.(.wX-Xk.l i x K u 7 8 h P K h r z c.,XOXS.1XtXrXqX0X X#._ ) 2 2 3 & ",
"2 & #. .#.d.p.e.N.0X>XXXF.@X7XoX1XB.c 9 t q.T.).V.q 9 i.`.R.i.m 9 t <.Y.`.eXyXrXqXqX7X X' 5 2 2 < & ",
"< %  . .#.#.#.#. X3XH.G.,.-.(.Q.x.c P 1.1.).2X_.4.B T !.[.2X^.V.1.G u P v.wXyXyXyX3XoX8Xs.5 2 2 < & ",
"2 % ' D.>.>.>. . X8X(.G.;.G.(.l.c I Q.2X&X&X&X5.D 1.(._.^.I.A.^.#X!.5.w c *XtXyXtXOX(.3X8X$.| ^ 2 & ",
"% . & & & & & & a e.=XOXS.oXW.v I R.2X2X2X5X&X4.G T.#X+X'.`.!.'.2X].K.J 0 <.,XeXoXG.;.XX;Xf.3 * & & ",
"< & < s s ; ; > 1 4 f.OX1XE.9.I Y.(.'.2X2X[.I.W G J.[.U.I.&X+X[./.I.!.I.D 9 r.Q.F.=.&.*.`.|.X.s s 3 ",
"2 & ) ) ' f f f g ..g.;X6Xl.c Y.`.K.!.+X[.2X).T G R.&XU.K.!.'.+X^.V.I./.5.m j N.OXG.=.(.3X|.[ ~ d ' ",
"! ; ....' ' ' ' ..O.g..X<X<.S J.2X`.).`.[.[.!.G T I.).I.'.+X].'.!.I.A.A.7.J w <.0XoX(.3X.Xd.e.' 6 U ",
") < O.w.w.w.y.w.y.g.g.*Xc.h L I.2X9X@X2X5X'.5.S 1.^.L.).9X9X[.A.I.+XI.A.!.7.w i -X7X4X>Xz.y.h.w.X.U ",
"! ; y.g.h.p.p.a.M.>X<X<Xu.i i.).).5X5X9X5X'.2.Z h.2X^.'.5X2X^.Z.!.].P.P.'.8.B t N.wX<XN.p.y.x.h.h.p.",
"/ ; k.h.h.p.w.g.;X6X7XrXy.y C.'.)._.'.'.].U.2.F i.[.K.U.'.U.Z.L.'.U.7.Z.I.3.m t c.<Xh.u.O.w.p.h.h.h.",
"{ ; h.y.g.0.q.M.3XoX4XwX<.y V.^.'.J.1.5.I.^.5.S R I.P.P.V.T 5.P.~.A.8.I.I.J 0 7 x..Xh.w.U U U w.p.p.",
"{ ; x.y.O.o.m.<XOXH.(.=Xc Y (.'.Y.I r q R R.J.F 1.2X].C.x 7 u C./././.'.^.3.B # r..Xh.w.U X.v O.w.p.",
"{ ; d.w. .%.-XoXF.,.;.C.i L XXOXI z z h h r.C.Y i.#X!.Y U h h v i.].^.U.L.7.V 7 9.}.p.y.w.w.0.w.w.g.",
"/ ; '  . .#. X1XH.,.;.S.P y C.J.p r z r e K C.L R ~.V.i l l e 8 Y I.Z.7.6.2.V 9 k.-Xg.s.p.p. .O.O.' ",
"2 ;  .#.j.{.j.8X1XF.XXeXk.9 G 5.K e O o 8 F L # q T T y O X O e T 8.8.6.2.C n t c.$X{.>.>.W.>.#.#.#.",
"% % X & & & = z .XoX1XwX}.k q H 4.u + r q.K # + @ $ q I F O r T 7.7.6.2.C B q <.N.z & & & & & & X X ",
"; . f f a x X.q..X6X3X*X*Xc.h w W W A R R.i.# + b @ y C.J.R W Q 6.2.C C M 0 v B.c.a - > - > & & &   ",
"% %  X . .O.h.g.E.-X*Xv.N.-Xc.c n N W Z.^.P.R 0 $ Z R U.~.Z.Q Q E B 0 0 7 j N.B.t.X...` ` ' f 3 < X ",
"% % >. .`  .h.g.g.h.v.x.g.N.,XB.<.u D W 7.7.2.m + D 6.7.6.W E V n # 8 h <.%X-Xa.y.x.#.d. . . .' < & ",
"2 ; >.' 5 ..h.y.y.p.h.x.x.v.E.-X-Xl.P S B B M 0 q S B B M 0 n n 7 z l.%X,X-Xl.q.w.p.g.x.g.g.' ) s - ",
"2 ; >.' f w.h.p.p.p.x.k.h.c.m.m.|.-XW.r.K j j c u.r.j j j h j j 9.B.=XE.c.u.w.w.0.0.p.h.h.h.w.O.s & ",
"2 % j.5 2 ..p.p.p.c.c.c.h.c.m.c.v.M.*X*XN.c.N..X*XN.M.b.x.c.n.B.-XW.x.e.w.w.y.p.y.y.p.h.h.h.p.O.s & ",
"5 % >.' s .. .p.m.W.W.m.c.c.c.m.h.d.%.%.v.g.v.m.+.f :.%.%.f.M.|.E.n.h.h.k.p.p.z.h.h.h.h.h.h.0.U s & ",
"~ % >.O.O.O. .p.m.m.h.j.x.h.h.x. ._ ) ) ' ) ~ ' 3 & ^ ' ] X.w.h.h.y.p.h.p.y.O.O.p.p.p.h.h.h.w.O.f & ",
"! % } o.w. .5  .w.w. .@. .$. .#.~ ! ! 5 5 ) ! 5 < & ^ 0.O.g O.d.g.O.` g.p.O.f f '  . .O.w.O.O...f & ",
"2 % $.' / / ' ' / / / / { { / ~ ! / o./ 5 ) 5 ~ < &  .$.' 2 ..+.w. .` w. . .' ' ' ' /  .' d ' 5 s = ",
"%   { ^ { #.#.$.{ { { { { #.>.>.>.#.>.#.^ {.>.^ 2 X 6  .$.#. .>.#. .x.D.{ D.W.#.>.#.@.j.>. .#.>.' & ",
".   ~ ; ; ; ; & & * o X X X - - - & - = & = = & X X X & & & & & & & & & & & & & & & > e e > ; ; ; & ",
"* o % . . . . . . % . % o % . % o : ; & % . % % * % . . % % * ; ; & & &     . . & % ; & & % % % & ; ",
"/ ! 2 2 2 ; % % % ; < < : % { ! ! ! ! 2 ! ! 2 2 2 < % < ! / ^ ^ ^ / 2 < < % < 2 ! ! ! ! / / ! ! ! ; "
};
