/* XPM */
static char *result[] = {
/* columns rows colors chars-per-pixel */
"50 50 214 2 ",
"   c #0A0708",
".  c #0D0B0C",
"X  c #120E0E",
"o  c #1B0D0D",
"O  c #161808",
"+  c #131213",
"@  c #1A1616",
"#  c #1C1C14",
"$  c #1C1B1C",
"%  c #2B1310",
"&  c #291A17",
"*  c #221E1B",
"=  c #102004",
"-  c #1A3C02",
";  c #1E2414",
":  c #1D2C14",
">  c #22211C",
",  c #222A1A",
"<  c #252A19",
"1  c #372F1D",
"2  c #253017",
"3  c #2A341A",
"4  c #2B3B19",
"5  c #1E1D22",
"6  c #1F1E28",
"7  c #221F23",
"8  c #232323",
"9  c #292726",
"0  c #2B2A25",
"q  c #24242C",
"w  c #2C2B2A",
"e  c #352B27",
"r  c #2C3429",
"t  c #373826",
"y  c #34312D",
"u  c #252631",
"i  c #272833",
"p  c #292B37",
"a  c #2B2D3A",
"s  c #352E39",
"d  c #2F3136",
"f  c #2E313D",
"g  c #343533",
"h  c #3B3532",
"j  c #363A33",
"k  c #3B3A34",
"l  c #35363C",
"z  c #3B3D3B",
"x  c #423027",
"c  c #423C35",
"v  c #493A34",
"b  c #423E3A",
"n  c #21400C",
"m  c #255507",
"M  c #27560A",
"N  c #2E411B",
"B  c #35461C",
"V  c #2C5411",
"C  c #38531D",
"Z  c #3B4529",
"A  c #3E4A2B",
"S  c #3B5620",
"D  c #3F5A26",
"F  c #3A4537",
"G  c #3B543B",
"H  c #434A2A",
"J  c #425A22",
"K  c #474836",
"L  c #44423D",
"P  c #4B443B",
"I  c #434D3C",
"U  c #56443C",
"Y  c #495536",
"T  c #48523A",
"R  c #545630",
"E  c #545D3D",
"W  c #496425",
"Q  c #517B26",
"!  c #5D742C",
"~  c #5D6035",
"^  c #576639",
"/  c #547135",
"(  c #677634",
")  c #6B7E39",
"_  c #2E3040",
"`  c #333543",
"'  c #353849",
"]  c #373B50",
"[  c #3A3F55",
"{  c #3C4646",
"}  c #3F5247",
"|  c #3C4357",
" . c #434442",
".. c #434A43",
"X. c #4D4A43",
"o. c #4C4A4A",
"O. c #544D45",
"+. c #564C46",
"@. c #4B5543",
"#. c #575848",
"$. c #454B56",
"%. c #485456",
"&. c #535455",
"*. c #5A5954",
"=. c #5B5D5C",
"-. c #61594C",
";. c #645F54",
":. c #615C58",
">. c #4B684A",
",. c #5A6645",
"<. c #596549",
"1. c #527053",
"2. c #567957",
"3. c #69764B",
"4. c #687849",
"5. c #676457",
"6. c #6F7054",
"7. c #697A56",
"8. c #434C63",
"9. c #465068",
"0. c #48546A",
"q. c #4E5C74",
"w. c #5E6161",
"e. c #546F63",
"r. c #55647A",
"t. c #626464",
"y. c #696762",
"u. c #6B6964",
"i. c #6B6C6A",
"p. c #736E64",
"a. c #6B7561",
"s. c #797367",
"d. c #71706C",
"f. c #757473",
"g. c #787978",
"h. c #817B69",
"j. c #837876",
"k. c #877F77",
"l. c #5A8D2B",
"z. c #5C902C",
"x. c #769E2E",
"c. c #768E3C",
"v. c #688341",
"b. c #698144",
"n. c #738550",
"m. c #768A54",
"M. c #788D54",
"N. c #788D55",
"B. c #668463",
"V. c #689666",
"C. c #728872",
"Z. c #69A26C",
"A. c #6FA670",
"S. c #78AB73",
"D. c #7DB778",
"F. c #81A53C",
"G. c #8EB833",
"H. c #83975D",
"J. c #859D5D",
"K. c #87A05E",
"L. c #858167",
"P. c #889E62",
"I. c #8A8375",
"U. c #888576",
"Y. c #918877",
"T. c #918B7B",
"R. c #87987B",
"E. c #8EA565",
"W. c #94AF68",
"Q. c #97B26A",
"!. c #9CB46A",
"~. c #84A77B",
"^. c #ADC976",
"/. c #B0CD78",
"(. c #576982",
"). c #5C708B",
"_. c #607691",
"`. c #6A838D",
"'. c #8B8983",
"]. c #8D8B8D",
"[. c #918F84",
"{. c #889687",
"}. c #969386",
"|. c #999586",
" X c #979694",
".X c #989694",
"XX c #9E9C91",
"oX c #A49C86",
"OX c #A19F93",
"+X c #96AB8B",
"@X c #8EB286",
"#X c #ABA387",
"$X c #A8A598",
"%X c #AAA79E",
"&X c #ABA89F",
"*X c #B4AC94",
"=X c #B9B092",
"-X c #9E9FA2",
";X c #9FA0A3",
":X c #A9A7A7",
">X c #A9ABAF",
",X c #BBB5A6",
"<X c #B6B2AA",
"1X c #B7B2AC",
"2X c #B8B3AD",
"3X c #C2B99D",
"4X c #C3BFBA",
"5X c #93D087",
"6X c #CCC8B9",
"7X c #D3CCB3",
"8X c #DBD7C9",
"9X c #E1DECF",
"0X c #F5F4E7",
"qX c #FDFDF5",
/* pixels */
"N S S S C S W W R W W W N : :Xp.5.Y ,.4.3.d.3.:.5.u.y.3.Y ,.:.Y Z S S C Y 4 C ;.~ W W W W C S W W S ",
"z.S Q Q Q W ~ ( W c.v.( W N 8XQ.K.K.Q.OX|.#XK.K.E.|.].|.L.L.I.L.c.( n.C.W B |.Q.N.b.c.v.( Q S W S Q ",
"c.S Q Q z.v.Q v.l.s.T.M.W N 8X}.K.Q.Q.OX|.K.Q.K.J.%X%X;X|.I.T.}.}.Q.K.K.W Z /.|.N.v.K.N.l.n.c.c.W S ",
"N.S Q z.z.c.( N.M.T.|.T.,.N 4XT.I.|.:X|.].|.k.k.}.-X%XOX}.T.T.|.$XXXK.K.,.Z Q.N.v.OX%X$XE.E.N.c.v.c.",
"c.S N.N.K.N.N.T.}.$X%X.Xy.N Q.4.y.k.}.T.I.k.T.I.s.T.[.T.T.k.g.T.].T.].}.,.Z E.N.J.T.$X%XOXJ.K.N.N.c.",
"x.S &XOX|.v.L.|.OX&X>X|.,.N /.N.N.T.$X}.}.}.[.s.U.|.T.4.n.k.|. X}.].|.$X,.N K.c.N.T.&X>X>X&XQ.c.c.c.",
"c.S &X&X|.N.L.T.OX&X:XOX,.N Q.c.N.|.|.OX%X&XU.$X8X9X8X$X7.N.|.:X$X}.}.&Xp.N F.v.N.N.K.K.>X>XOXJ.|.$X",
"Q.W OX:XOXI.I.T..X;X&X}.4.N Q.K.}.L.( K.K.J.I.9XqXqX0X9Xh.) T.XX$XOX&X$X:.N x.m.|.|.#XQ.2X&XOX$X%XOX",
"K.S T.OXOX}.T.|. X|.OX!.( N Q.N.J.m.,.m.N.3.T.6X0X0X0X7XT.E N.N.N.}.=XN.*.N /.$XK.|.oX6X2XQ.K.K.J.N.",
"F.m L.|.OXOX X X}.N.Q.P.Z N Q.c.v.c.J.W.Q.6.T.=X8X9X8X,XT.3./.W.l.^.K.( Y N &X=X!.:X2X4X&XQ.K.z.v.v.",
"z.N K.Q./.8X8X6X:XQ.F.Y N N m.W.4.,.3.,.<.I |.,X,X7X,X,XoXT ,.W ( ^ R x.( : Y Q.Q.3X2X6X/.3X7X3XK.F.",
"m m Z Z o.o.o. .9 2 4 N N N F >.2 > 3 t Z T R.+X&X,X&X@XR.@.N 2 3 @ ; 2 : = = = O : # : : : : : Z Z ",
"m N z.W 3.L.y.E t # r B B C D / J < > g L T B.Z.{.8X{.V.B.E Z h 0 t B ~ ,.Y J 4 & ; < 4 N W S Z Z N ",
"W N /.K.K.Q.Q.N.s.#.< r X.^ ) / s.4.e < # h *.B.R.*XR.B.*.t # 9 c O.1 4.C.4.t * o H l.l.( c.v.S Z N ",
"W m /.K.T.&X2X&X'.1X*.9 j 1.R.C.U U #.L q ` $.p.$XL.*Xu.%.l q f P +.e 7.~.2.> 9 0 n.c.l.c.K.v.( C N ",
"W N /.K.T.|.&X&X X1XXXO.X.F S.@Xx U *.r.| q.0.5.|.}.|.t.0.q.| q. .p.#.D.V.Z $ X.#.4.Y.J.}.k.N.c.S N ",
"S N Q.T.f.L.T..XOXOXOXs.p.y G D.F h w q.q.).| $.p.I.p.$.$.).q.r.a k F S.r y < k.y.'.;X%X|.E.m.Q W N ",
"W S Q.|.T.N.K.&X2X2X>X].h.a.c 2.& + & 0.q.).| [ b O.L [ [ _.q.r.p @ @ 2.F k k #X:.OXQ.#XT.m.N.( W N ",
"Q S /.#X&X&X=X4X4X4X4XOXC.+Xs.@.o @ & | r.(.8.' 8 u 7 ` 8._.q.(.a u $ { A.T Y W.u.Q.x.N.T.J.M.( W N ",
"Q N Q.N.&X2X2X1X4X4X4X<X+XT.U.k o @ q f | %.| 6 7 f & ` q._.9.).a _ 6 1.5X<.Y.%XH.Q.J.c.) c.Q Q R N ",
"Q N Q.K.Q.#XOX|.:X2XW.m.4.5.S.F % o f 9.q 1 u i e 8.h a 8.0.8._.a a 7 V.D.X.g.n.H.H.K.c.v.( Q Q W N ",
"W m K.K.Q.Q.W.n.4.E E k 3 G S.{ $ % 0 ).6 o f | l 8.8.` ` _ B.`.9 a 7 >.A.G t t H ^ ^ n.K.( Q Q W N ",
"Q m N.3X/.^.^.H 0 ; > 0 $ 0 G w 6 % e 0.@ a 8.9.9.9.0.0.8.' V.%.e a 6 r T r $ 0 > ; 0 E ^.x.J.F.l.N ",
"m - N N N N 4 2 < ; , > ; e c * & X 1.>.f q.(.q.r.(.(.(.q.` } } >.p u 8 j 0 ; > > , < 2 4 N V N 4 N ",
"W N W ,.,.S S Y W J J B B -.I.c o $ Z.D.C._.).&.| | r.9.$.I ' | ..q q e #.#.C Z R #.3.,.Y ,.,.,.,.R ",
"Q N v.v.N.3.3.3.6.L.T.H.R #.oXc o u 2.5X5X=.` & $ 6 s 5 { >.%.| p p 7 & x 5.E.z.m.T.J.L.v.N.3.v.4.N.",
"z.S L.L.N.N.N.N.L.T.}.h.K x 5.> $ ` l e.`.G $ 7 ` a i 7 a { e.] q 7 o 9 v v H.Y.}.N.N.T.I.T.|.N.( L.",
"v.W T.|.|.|..X|.].|.T.].P & #.e 7 ' | %.e.{ _ ] | [ [ ' 6 d @X} $ & @ { O.& ~ %X+X|.|.}.]..X&X|.I.k.",
"z.S .XOX:X+XOX.X}.OX[.p.e e -.y 5 u a 2.2.{ ` ] ] ] ] [ a F 5X>.* & 5 g b v *.%X%XOXk.Y.|..X:X&X%X$X",
"c.S ;X&X&X$X|.|.|.OX[.c h e e 8 + 9 s >.B.d p ' ' ' _ ' f F V.>.h e X 7 y O.p.}.OXOXT.].T.|.OX&X%X:X",
"F.S :XOXOX].k.Y.|.OX|.> L 0 $ 7 h 5.5.y r y *.u.u.d.t.u.*.y , r ;.5.h 8 5 w ;.:.|.|.OX}.k.k.k.|.OXOX",
"F.S ;XOXT.N.f.k.L.T.f.7 0 w c -.h.U.s.$ X +.k.T.Y.|.T.T.U.o.. $ s.Y.s.-.k w w h p.|.OX|.k.I.g.T.|.OX",
"F.S OX|.K.c.s.s.( E y 9 c U p.p.u.p.+.$ @  .o.X.P X.P P o. .$ $ @.p.p.p.p.U c w t 4.|..X|.|.].|.|.$X",
"c.S N.J.K.N.N.c.W r < t X.K s.g g { e 6 i q + . . . . X + u u 6 w { g g 5.t s.#.w k p.XXXX$XK.Y.T.N.",
"Q C K.!.3X/.J.J.K A ! B 1 3 H # g y w i p $ X + $ $ $ + . 5 a u 9 y g # E # ,.&XN.E Y !./.4X/.Q.Q.Q.",
"m m < N N N N 3 2 4 4 ; % 4 4 $ g z F p 5 + + $ 8 0 0 $ + + 5 p z z k @ ; < 4 Z N 4 2 3 N N N N : : ",
"C - 4.4.,.p.k.j.f.f.5.b L x B * j &.o.q + + $ 9 w y e 9 $ X + q o.%.z * w > 2 Z o.Z A Y Z Y N N N = ",
"m m 7XK.K.Y.%XOXXXOXu.i.I.& K * ' w.&.5 $ X * w y h y 0 > X $ 5 &.=.` 7 :.t H y.g.U.L.N.N.N.4.~ W : ",
"m m /.K.N.K.&XOXXX$X:.].s.c 5.6 { w.&.5 $ + * w h c h w * X $ 5 &.t...7 p.s.5.k.}.:XQ.#XN.E.K.N.W N ",
"Q C /.N.( L.&X$X.XXXT.$X+.u.*.$ o.i.w.$ $ + * y h P h y > + 5 $ =.d.{ + @.].g.T.}.OX$X&X:XXXn.c.,.A ",
"Q C /.N.3.}.&XOXXX$X.X X*.g...$ $.f.=.$ 5 + 8 y c P c e 8 X 7 ; =.f. .X k f.T.|.].].OX&X&X&X}.T.,.N ",
"Q m =X( Q L.OXOXXX>X>X:Xy.g.F ' &.d.=.z 9 . > y c P c y 8 . w ' =.f.o.w 8 v =.XX X.XOX&X&X&X$XT.,.N ",
"( M /.N.,.L.K.OX2X4X4X<Xg.'.z t.w.w.w.t.j   8 h K P L h >   g t.t.t.w.&.* e X.f.$X$X:X&X&X&X].U.,.N ",
"c.M /.T.T.T.K.$X2X2X:X*X XU.k u.i.i.i.d.z   8 g P v L h 8   z i.i.i.i.u.g L 5.O.5.[.OX%X&X:X|.U.3.N ",
"l.m G.J.|.K.( K.|.|.K.H.3.E y d.d.f.d.f.z   8 h P P  .c 8 . z f.i.f.d.i.z 5.<.K < N.K.|.|.U.T.L.3.N ",
"Q m Q.N.c.c.N.N.c.c.c./ 1 t y =.i.i.i.i.d . ; y c k c y ;   g i.i.i.i.w.l n.7.,.H ,.v.J.N.c.N.( ,.Z ",
"M = x.x.F.!.Q.Q.F.F.F.( ~ <.g &.t.t.w.w.w . w y k k k g w . w w.w.w.t.&.j T.4XE.P.m.Q.=X/.K.Q./.N.N ",
"- = b.D S C C N N N N : 2 r g  .=.&.&.&.0 8 ..A r r r F I 9 8 &.=.&.*. .j Z 4 4 N t Z o.o.T S S S N ",
"N N M - - - - - - m - m N C { j  .L { F z F D V N M - n D F d F { {  .k  .3 - - 4 M S N N M m m N C ",
"c.Q Q Q Q S m m m S W W S V ,.G I T T I @.( Q Q Q W M W z.4.,.T T T I L @.V W Q z.z.z.z.c.c.z.z.z.S "
};
