/* XPM */
static char *result[] = {
/* columns rows colors chars-per-pixel */
"50 50 223 2 ",
"   c #160B0B",
".  c #100D0D",
"X  c #1C0C0B",
"o  c #171612",
"O  c #1B1615",
"+  c #1C1B1A",
"@  c #2A0D0A",
"#  c #30140E",
"$  c #271511",
"%  c #221915",
"&  c #2D1B17",
"*  c #221C1A",
"=  c #331816",
"-  c #102004",
";  c #16200D",
":  c #1A3C02",
">  c #1E2217",
",  c #1D2C14",
"<  c #24241D",
"1  c #272818",
"2  c #24291C",
"3  c #322F1B",
"4  c #293319",
"5  c #1E1E23",
"6  c #231A20",
"7  c #242422",
"8  c #2B2422",
"9  c #262926",
"0  c #2A2B26",
"q  c #27262A",
"w  c #2B2C2B",
"e  c #372A27",
"r  c #352E26",
"t  c #2C3622",
"y  c #2D312B",
"u  c #33322D",
"i  c #37382A",
"p  c #292933",
"a  c #2B2D3B",
"s  c #2D3331",
"d  c #343434",
"f  c #323B34",
"g  c #373937",
"h  c #3C3A34",
"j  c #32353B",
"k  c #3B3C3C",
"l  c #462E26",
"z  c #473A37",
"x  c #4A3B33",
"c  c #264B0E",
"v  c #255507",
"b  c #274716",
"n  c #2E411B",
"m  c #2E432C",
"M  c #354528",
"N  c #3B4529",
"B  c #3B5620",
"V  c #3F5F20",
"C  c #394638",
"Z  c #465C2A",
"A  c #47463C",
"S  c #544F3A",
"D  c #465134",
"F  c #495636",
"G  c #496425",
"H  c #48692B",
"J  c #586D2C",
"K  c #517B26",
"L  c #5D6035",
"P  c #5D6D3B",
"I  c #537C31",
"U  c #677634",
"Y  c #2F3143",
"T  c #353848",
"R  c #373C51",
"E  c #393E54",
"W  c #3B4543",
"Q  c #3D5346",
"!  c #3D4457",
"~  c #3D435B",
"^  c #434344",
"/  c #4B4846",
"(  c #43454B",
")  c #4C4B4C",
"_  c #554C43",
"`  c #584D47",
"'  c #465944",
"]  c #59564A",
"[  c #444A5A",
"{  c #4C5256",
"}  c #525353",
"|  c #595956",
" . c #555659",
".. c #5A5B5B",
"X. c #624C42",
"o. c #65594D",
"O. c #645C51",
"+. c #615C58",
"@. c #4B694E",
"#. c #5A6645",
"$. c #576149",
"%. c #566854",
"&. c #4F7151",
"*. c #5A7857",
"=. c #6F6D41",
"-. c #64764A",
";. c #69764B",
":. c #696456",
">. c #65625C",
",. c #6B645A",
"<. c #756758",
"1. c #66765C",
"2. c #454E65",
"3. c #485468",
"4. c #5B5C60",
"5. c #4F5E76",
"6. c #615E61",
"7. c #546D6D",
"8. c #636463",
"9. c #696761",
"0. c #6A6B67",
"q. c #726E66",
"w. c #756F67",
"e. c #667967",
"r. c #777668",
"t. c #747472",
"y. c #7C7A75",
"u. c #787C7B",
"i. c #857C6B",
"p. c #847B6C",
"a. c #837172",
"s. c #867F77",
"d. c #5A8A2D",
"f. c #5C902C",
"g. c #769E2E",
"h. c #698634",
"j. c #768E3C",
"k. c #7FA23B",
"l. c #688341",
"z. c #708A55",
"x. c #768B54",
"c. c #788D55",
"v. c #768E58",
"b. c #5B8362",
"n. c #648C64",
"m. c #76886C",
"M. c #6B966B",
"N. c #719466",
"B. c #768D78",
"V. c #6A9772",
"C. c #7E987A",
"Z. c #6DA370",
"A. c #76A875",
"S. c #7CB679",
"D. c #81A53C",
"F. c #8EB833",
"G. c #82854F",
"H. c #859D5D",
"J. c #87A05E",
"K. c #858167",
"L. c #82876C",
"P. c #868576",
"I. c #8C8374",
"U. c #84827D",
"Y. c #8D8A7B",
"T. c #918B7B",
"R. c #948879",
"E. c #8B957B",
"W. c #919275",
"Q. c #A2997F",
"!. c #89A362",
"~. c #92AD67",
"^. c #97B26A",
"/. c #98B068",
"(. c #82A57A",
"). c #83BB7C",
"_. c #9FB970",
"`. c #ABC674",
"'. c #AFCC78",
"]. c #B0CD78",
"[. c #868887",
"{. c #8D8B8E",
"}. c #928E83",
"|. c #8D9985",
" X c #949484",
".X c #999586",
"XX c #979889",
"oX c #989694",
"OX c #999896",
"+X c #A49C8A",
"@X c #A19F93",
"#X c #8FA886",
"$X c #ABA387",
"%X c #A9A08F",
"&X c #A6A698",
"*X c #AAA79E",
"=X c #ABA89F",
"-X c #B3AD9C",
";X c #B8AF9D",
":X c #A7B191",
">X c #B9B092",
",X c #B8B09E",
"<X c #9E9FA2",
"1X c #9FA0A3",
"2X c #A5A7AB",
"3X c #A9ABAF",
"4X c #BAB6A7",
"5X c #B8B3AD",
"6X c #B9B5B0",
"7X c #C2B99D",
"8X c #C2BBAD",
"9X c #C3BFBA",
"0X c #85C381",
"qX c #94C684",
"wX c #9CD88C",
"eX c #AEE895",
"rX c #CDC8B7",
"tX c #D0CBB5",
"yX c #D3CDC1",
"uX c #DAD6C9",
"iX c #D9D9C9",
"pX c #E0DBCA",
"aX c #E6E3D2",
/* pixels */
"n B B B B B G G L G G G n , =Xw.+.F #.;.;.w.;.+.9.9.>.;.F #.+.F N B B B F n B +.L G G G G B B G G B ",
"f.B K K K G L U G h.l.U G n uX^.H.J.^.%X.X$XJ.J.J..X{.XXL.K.I.K.l.U c.L.G n .X^.c.l.j.l.U K B G B K ",
"j.B K K f.l.K l.K K.T.c.G n uX.XJ./.^.OXXXH.^.!.!.*X*X1X.Xs.T..X X^.J.J.G N ]..Xv.h.J.c.l.j.j.l.G B ",
"c.B K f.f.j.U c.c.T..XY.#.n rX[.I..X2X.X{. XP.P.|.1X=X@X.XT.Y..X@X@XJ.J.#.N ^.c.l.%X2X%XJ.J.J.j.l.j.",
"j.B c.c.J.c.c.T.XX@X=XoX9.n ^.;.,.P..XT.P.s.R.(.E.XXOXE.T.s.u.T.{.T.{. X#.N J.c.J.Y.+X=X%X!.J.c.c.j.",
"g.B =X@X.Xl.K..X@X=X3XXX#.n ].c.c.T.OXXX.X.X.X).qX(.L.l.c.s..XoX.X{..X%X#.n J.j.c.T.2X3X3X*X^.j.j.j.",
"j.B =X=X.Xc.K.T.%X*X2X%X#.n ^.j.c..X.X%X=X*X*XA.wXwXz.l.c.c..X2X=X.X.X2Xw.n D.l.c.c.!.H.3X3X@XJ. X&X",
"^.G +X2X@Xs.P.T.oX<X=X.X;.n ^.J..XK.U !.J.^.*XXXE.).v.U c.j.T.%X@X@X=X%X+.n D.c..X.X$X^.5X*X@X@X=XOX",
"J.B T.%X@X.XR..XoX.X%X^.U n ^.c.J.c.#.c.c.!.@X@Xv.1.l.v.v.U c.c.c..X>Xc.+.n ].@XJ..X+X9X5X^.J.J.J.v.",
"D.v K.XX@X@XoXoX.Xc.^.!.N n ^.j.l.j.J.^.^.'.'.$XN.*.#.^.'.'.'.^.f.'.J.U F n =X>X/.2X9XrX-X^.J.f.h.l.",
"f.n H.^.].uXuXuX6X^.k.F n n c.^.J.c.;.#.#.F N y &.A.C t D L #.G U l.;.g.U , F ^./.7XuXyX].7XtX7X!.D.",
"v v N N / ) ) ) ) n n n n n N M n N n N M n 4 [ A @.Q ! 2 n n n n , , , , - - - - 1 , , , , , , N N ",
"v n f.G ;.K.9.#.L B G B B B B B G N F +.,.#.4 5.3.W 3.5.i U P #.P L G L #.F G G n n n n n G B N N n ",
"G n ].J.J.^.^.c.L.@X^.c.T.U K l.T.c.c.J.J.p.i T 5.5.5.T i x.x.T.Y.i.x.H.T.l.U l.h.l.f.f.U j.l.B N n ",
"G v ].J.T.2X4X=X[.6X3XXX&X=X=X1X@XT.K.N.:X>XO.a ~ 2.~ p <.r..XE.I.>.s.=X1XJ.l.c.T.c.j.f.j.J.l.U B n ",
"G n ].J.T..X=X=XOX5X=X%XOX=X=X%X.XW.I.4XiXuX%X/ R ~ ! ^ ,XU..XE._ z P.=X=X=X.X.XXXc.Y.!..Xs.c.j.B n ",
"B n ^.T.t.K.Y.oX@X@X&X.X{.<X2X@X.Xw.XXpX8X,XT.:.6. .6.:..Xi./ p.:.X.{.@X=X3X=X5X=X@X2X&X.X!.c.K G n ",
"G B ^..XT.c.H.2X5X5X3XOXW.Y.@X%XY.%.;X4XE.R.i.+XrX<.i.] x _ i s.=X:. X&X3X=X@X>X5X=X/.$XT.c.c.U G n ",
"K B ].$X=X=X>XrX9X9X9XOXT.;.[.J.;.n.rXE.N.,.T.aXuXx z q.x i n.|.tXe.U.5X5X+Xc.~.=X^.g.c.T.H.v.U G n ",
"K n ^.c.*X4X5X4X9X9X6X9.y.x.x.XXU.0.tXn.M.<.+XR.+.e 0 r.R.$.A.n.rX1.U.*X5X@Xi.>.~.^.H.j.l.l.K K L n ",
"K n ^.J.^.$X&X.X2X9X~.N i F r.{.U.s.rXN.%.p.,.= _ &X X] O.<.%.E.rXP.] }.U.| u D H.H.J.j.h.U K K G n ",
"G v J.J.^.^./.^./././.-.2 < i _ S T.aX(.$._ e ` =XaXtXT._ u >.:XtX4X< _ A 7 3 J j./.J.^.!.U K K G n ",
"K v c.7X].].].J./.].D.D.J 4 w 0 * o.8XW.m.e r +X8XrX-X6X.X8 r.#X-XI.O O 8 0 J D.'.].^.].'.D.D.D.K n ",
"v : n n n n n n n n n 4 n 1 < 7 O A I.I.1.l C :X-X>X&X#XC.A ] E.+X] 7 o o 4 n 4 n n n n n n n n n n ",
"G n G #.#.B B F G G G G G n V + C C S >.h < *.M.&XtXC.Z.b.A q ] ,.C w 1 o 4 K F L #.;.#.F #.#.#.#.L ",
"K n l.l.c.;.;.;.<.K.W.c.L D ~.r n.&.  C O + 1.n.#X4Xm.n.%.d j p h > k A 1 1 !.f.c.T.J.i.l.c.;.l.;.c.",
"f.B K.K.c.c.c.c.K.T..XK.#.T `.i r.M.0 ' W s )  X&XI.,X:.W s { C O.A :.C 4 # l.R..Xc.c.T.P.T..Xc.U K.",
"l.G T..X.X.XOX.X{..X.X{.>./ `.2 9. X) *.V.~ ( R.+XR.%X` E p ] n.<.I.q.C 4 # h.*X%X.X.X.X{.oX=X.XU.s.",
"f.B oX@X2X%XOXoX.X@X@X.Xw.C G.$ { .X1._.V.2.T | R..Xi.j ~ Y $.0XN..X%.A 2 3 uX&X2X@XP.Y..XoX=X=X=X@X",
"j.B 1X=X=X%X.X.X.X@X=XOXw.i =.# ^ E.A.#X7.2.E [ ,.m.9.E ~ ~ M.wX#Xi.} ^ 2 g uX2X%X@XY.{.T..X@X=X=X=X",
"D.B =X@X@X{.P.T..X@X@X@Xw.M H.o { A.S.&.! 2.[  .) 1.%.2.[ 3.V.eX).X.) k * ( uX@X.X.X@X.Xs.s.s..X@X@X",
"D.B 1X@XT.c.t.P.i.}.@X.X0./ F o ] b.S.b.j 4.>.,.t.L.w.0.9. .' N.' = i w 1 t tX@X.X.X@X.Xs.U.u.T..X@X",
"D.B @X.XJ.h.K.i.U ;.K.I.9.4 7 * l 9 Q F , >.i.i.+XR.R.I.<.:.< > +   * 8 i 1 yX~.H.J..XoX.X.X{..X.X%X",
"j.B c.H.J.c.v.l.l.l.K ;.D o < 8 &   o   r r.+XR.&XR.%XT.` x &   o X < d k ; y.Q..X.X.X@X@X@XJ.T.T.c.",
"K B J.^.7X].J./.^.D.D.U Z 4 o w w +   = <.y.r.| B.r.9.9.e $ _ z . @ e u t 1 3 6X].'.].].].9X].^.^.^.",
"v v , n n n n n n n n n n 4 * 0 7 q + & ` ) j q &.n.j p O q ` ` X % % q < o & N n n n n n n n n , , ",
"B : ;.;.P q.I.a.t.t.w.q./ y 7 < d u = O 6 a a Y e.0Xb.Y 5 Y a e @ j g 5 q 5 1 M / N N F N F n n n - ",
"v v tXJ.H.R.2X@X@XOX@Xw.u 7 O w  .y # + a ! E ~ Z.wXS.! 5 E Y 7   k ..w + 7 < _ u.s.K.c.c.c.;.L G , ",
"v v ].J.x.J.=X@X@X@X*Xk C ] + d 8.j X 5 E 2.E E V.eX0X! p ~ ! p X e 0.g w u e d  X*X^.$XJ.H.J.c.G n ",
"K B ].c.U K.*X@XoX@X=X+.U.&XO T t.) 6 5 R [ [ a @.qXV.Y Y ! ! Y @ e t.^ C } / | }.@X@X=X=X&Xc.l.#.N ",
"K B ].c.;.XX=X@X@X@X1XOXU.t.O ) u.0...O e } 0.) C @.W } A | w.T % | y./ f  .A Y.{.{.@X=X=X=X XT.#.n ",
"K v >XU K K.@X%X@X3X3X2Xq.z w ( y.y.y.w @ ` [.t./ k / y.| w.w.l w [.t.^ s 9.g w.oXoX@X=X=X=X%XT.#.n ",
"U v '.c.#.K.J.OX5X9X9X5X[./ j d ..>.8.} = e 8.0.8.%.8.0.8.8./ # w ` } s f }.%. .*X=X=X=X=X=X{.U.#.n ",
"h.v '.T.T.T.H.&X5X5X=X>X}...C w ^ { }  .r $ w  . .4.| }  . .} w * = d y j oXI.r.OX%X@X=X=X=X.XY.;.n ",
"f.v F.!..X!.U H..X.XH.!.x.H.) 0 h ^ ) ) h k * / { ) ) } { } } w w $ d w } Y.-.-.v.J.J..X.XT.T.K.;.n ",
"K v ^.v.j.j.c.c.j.j.j.j.D.D.P y u T ) ^ ^ ( q W ^ ^ ( ) ^ / k < g $ 8 w -.J.c.x.c.v.h.J.c.l.c.U #.N ",
"v - D.g.D.^.^.^.D.D.k.D.k.^._.' y d k d d d & e d d g j d y + 7 w $ O = h.7XrX^.]./.^.>X'.J.^.'.c.n ",
": - l.B B B B n n n n , , , N N f s y s y w & 8 s s s w 9 q > p w w w # 4 4 4 n n t N ) ) F B B B n ",
"n n v : : : : : : v : v n v : v m M C f m q t t C m s 2 4 m m C m C m 2 < ; : : 4 v B n n v v v n V ",
"j.K K K K B v v v B G G B v g.f.f.d.I H I V H H H H b M I h.h.h.h.h.K Z Z c G K f.f.f.f.j.j.f.f.f.B "
};
