/* XPM */
static char *_9978a711e044031aaf58cc193129807oooxjCKZRoEttxYq[] = {
/* columns rows colors chars-per-pixel */
"50 50 57 1 ",
"  c #2E411B",
". c #3B5620",
"X c #496425",
"o c #5D6035",
"O c #1D2C14",
"+ c #ABA89F",
"@ c #736F67",
"# c #615C58",
"$ c #495636",
"% c #5A6645",
"& c #69764B",
"* c #696761",
"= c #3B4629",
"- c #5C902C",
"; c #517B26",
": c #677634",
"> c #688341",
", c #DBD7CA",
"< c #97B26A",
"1 c #87A05E",
"2 c #A19F93",
"3 c #999586",
"4 c #ABA387",
"5 c #8D8B8E",
"6 c #858167",
"7 c #877F77",
"8 c #788D55",
"9 c #768E3C",
"0 c #918B7B",
"q c #9FA0A3",
"w c #B0CD78",
"e c #C3BFBA",
"r c #989694",
"t c #767D7E",
"y c #769E2E",
"u c #A9ABAF",
"i c #81A53C",
"p c #837172",
"a c #B8B3AD",
"s c #B9B092",
"d c #255507",
"f c #C2B99D",
"g c #D4CEC2",
"h c #D9D0B4",
"j c #444749",
"k c #4E494A",
"l c #102004",
"z c #1A3C02",
"x c #808789",
"c c #757573",
"v c #796B56",
"b c #3C4041",
"n c #6A6C6F",
"m c #5A5459",
"M c #CDC4A5",
"N c #8EB833",
"B c white",
/* pixels */
" .....XXoXXX O+@#$%&&@&#***&$%#$=...$ .#oXXXX..XX.",
"-.;;;Xo:X>>:X ,<11<2341113536676>:86X 3<8>9>:;.X.;",
"9.;;->;>;608X ,31<<231<11++q37033<11X=w38>18>99>X.",
"8.;--9:88030% e073+353773q+230032211%=<8>2+21119>9",
"9.88188032+r* <&*7307707722007t05053%=18102+211889",
"y.+23>632+u3% w880233337@06>873r3532% 1980+uu+<999",
"9.++38602++2% <98332+++7**&>883++33+@ i>8811uu2132",
"<X2+2770rq+3& <136:11<+3p&::890222+2# i8334<a+22+2",
"1.022303r32<: <818%8812288988:8883s8# w2134ea<1118",
"id6322rr38<1= <9>91<<wwf<1wwwww<-w1:$ +s<+ee+<1->>",
"- 1<w,,,e<i$  8<18&%%$=$  =$$o%X:>&y:O$<<f,gwfhf1i",
"dd==jkkkj     == = ==  OOOlOO    OOOOllllOOOOOOO==",
"d -X&6*%o.X.....X=$#*%X$zl;Xo:%%%oXo%$XX     X.== ",
"X w11<<862<80:;>0881<08>% y>111006810>:>>>--:9>.= ",
"Xdw10+a+xe+32++q2061<436X y>1<20073+q1>8089-91>:. ",
"X w103++ra+22++230032233* i>55530t3+++3338013789. ",
". <0c60r22235q+237t05760% i>0@720752+u+a+2q+318;X ",
"X.<3081+aaur0022303r36;6% 110c02r32+u+2sa+<4088:X ",
";.w4++seeeeq0&51<<<4+062* i1003+++aaa48<+<y8018:X ",
"; <8+aaaeeea2883+1<<2032X 8<303++uaaa+4+<<19>>;;o ",
"; <1<423+e<<1835rq230813X <8+552+23++22<1119>:;;X ",
"Xd11<<<<<<<19>866r0>6635X w0t38880-329199<1<1:;;X ",
";d8fwww1<wiiiiiiiss1aggf1 9:.;-i<swww<iiww<wwiii; ",
"dz               = ====  lOO                      ",
"X X%%..$XXXXX -Xo%%*@@&X%%$$$..XX...= ;$o%&%$%%%%o",
"; >>8&&&v608o=<88:82++2806600672i>o8$ <-8016>8&>&8",
"-.6688886036%bw8680++++20:0q2002232>X <038807038:6",
">X0333r35335*kw873++2++230223003268;X i+23335r+377",
"-.r2+22r3223@jw6cr+q22235q+237t050&;$=,++2703r+++2",
"9.q++23332+2@=w87+ua++2773223673353>%b,+2205032+++",
"i.+225703222@=w90+aea41>60523882+333%j,23323777322",
"i.q208c76023nkw12+aea1113r30613222+6o=g2332377t032",
"i.231>66:&67*=w44++2<11<308>>86811<>%=g<113r335332",
"9.81188>>>;&$ 8s<<1911<19>-:&6::8&1>% as3332221008",
";.1<fw1<<ii:X $1iwi<wwwwwwww<f<1&9<18 %gwwwwwew<<<",
"ddO              =        =            =        OO",
".z&&%@7pcc@@*%..%%.%*oo&$ 8%X$#m$===b= =k==$=$   l",
"ddM110+2222r30&867603068X <8888&&&&%*%o*t76888&oXO",
"ddw181+222+q222330032388%=<>1<18003223073+<41118X ",
";.w8:6+2r2+++++qr0006086*=i;>75307522r50322++28>%=",
";.w8&3+222qq+ua+2506;800@ i-:*720@705533552+++30% ",
";ds:;6222uuu+uau+2568733& i-;*02305333r2rr2+++20% ",
":dw8%612aeeauuua+4180603% i;:83+++++q22q++++++57% ",
">dw00012aa+s++++19>>8>>8o i8873++22+2r00222+++30& ",
"-dN131:133111<1<>--::>-:X i00v02208220&&81133006& ",
";d<899889999ii9>-91>:>:;X 1<8;833183118888>18>8:%=",
"dliyi<<<iiiii<www<w<iwwi;O:1<<1w<1+fife<w<<sw1<w8 ",
"zl>....    OOO=== == == OOO               =kk$... ",
"  dzzzzzzdzd dzd .. dzdd dzzdd ..   llzz d.  ddd .",
"9;;;;.ddd.XX.dy----;--;;;XdX-9yyy9;XXdX;----99---."
};
