/* XPM */
static char *result[] = {
/* columns rows colors chars-per-pixel */
"50 50 233 2 ",
"   c #0C0C0C",
".  c #1D1005",
"X  c #1C1E0C",
"o  c #1F021E",
"O  c gray9",
"+  c #1D1D1D",
"@  c #24180C",
"#  c #2C1A08",
"$  c #33061D",
"%  c #251F19",
"&  c #042304",
"*  c #102004",
"=  c #132407",
"-  c #0F310D",
";  c #1A3C02",
":  c #183009",
">  c #1D2613",
",  c #1D2C14",
"<  c #1F321C",
"1  c #193D1E",
"2  c #3C250C",
"3  c #2F2317",
"4  c #2B2B16",
"5  c #23291A",
"6  c #212C1E",
"7  c #302916",
"8  c #233316",
"9  c #2A3818",
"0  c #141822",
"q  c #222222",
"w  c #212C23",
"e  c #2B2D25",
"r  c #282828",
"t  c #34232E",
"y  c #253D22",
"u  c #2E3C21",
"i  c #303C2E",
"p  c #232832",
"a  c #353E31",
"s  c #373F33",
"d  c #363F35",
"f  c #480A1D",
"g  c #49321C",
"h  c #590931",
"j  c #563F2C",
"k  c #443530",
"l  c #4A3234",
"z  c #11430F",
"x  c #255507",
"c  c #29411A",
"v  c #2E411B",
"b  c #364515",
"n  c #344E1C",
"m  c #26511A",
"M  c #3C5018",
"N  c #1F631B",
"B  c #274E24",
"V  c #294E2F",
"C  c #394E24",
"Z  c #3B4629",
"A  c #3D472B",
"S  c #3B4929",
"D  c #3A482D",
"F  c #3B5620",
"G  c #3F5927",
"H  c #33512F",
"J  c #335C28",
"K  c #3C5D2F",
"L  c #3E4736",
"P  c #3E4D30",
"I  c #3D4E33",
"U  c #3D473C",
"Y  c #3A493E",
"T  c #356231",
"R  c #356E30",
"E  c #464F19",
"W  c #414D24",
"Q  c #434328",
"!  c #5F4C2C",
"~  c #4E5A20",
"^  c #42582C",
"/  c #474C3B",
"(  c #5D4634",
")  c #5A4E34",
"_  c #445135",
"`  c #495635",
"'  c #495636",
"]  c #496425",
"[  c #426C27",
"{  c #517B26",
"}  c #476437",
"|  c #4B6D3C",
" . c #5D6035",
".. c #54633F",
"X. c #42753E",
"o. c #677634",
"O. c #2D3542",
"+. c #333943",
"@. c #6A0846",
"#. c #5F3A4E",
"$. c #3C4041",
"%. c #3F5944",
"&. c #3C4552",
"*. c #464F43",
"=. c #444749",
"-. c #4E494A",
";. c #494A4D",
":. c #4D4B4C",
">. c #4D5D41",
",. c #505442",
"<. c #5D5D42",
"1. c #565654",
"2. c #5B5C54",
"3. c #5A5459",
"4. c #5A5B5A",
"5. c #5C5B5C",
"6. c #665743",
"7. c #635C49",
"8. c #754954",
"9. c #615C58",
"0. c #785955",
"q. c #556546",
"w. c #5A6645",
"e. c #52604B",
"r. c #55624B",
"t. c #5E684F",
"y. c #4B7A45",
"u. c #5E7642",
"i. c #4D6D51",
"p. c #516153",
"a. c #576551",
"s. c #576456",
"d. c #5C6C50",
"f. c #5F7853",
"g. c #67674B",
"h. c #647143",
"j. c #69764B",
"k. c #61615E",
"l. c #6B685F",
"z. c #796B56",
"x. c #647556",
"c. c #68745D",
"v. c #6A7B5C",
"b. c #71775B",
"n. c #76765B",
"m. c #78785D",
"M. c #465262",
"N. c #505862",
"B. c #7F5562",
"V. c #5F6060",
"C. c #5F6168",
"Z. c #567A60",
"A. c #5A6572",
"S. c #656664",
"D. c #666567",
"F. c #696761",
"G. c #65676B",
"H. c #66686C",
"J. c #696B6A",
"K. c #6A6C6F",
"L. c #736F67",
"P. c #667960",
"I. c #6E7070",
"U. c #757573",
"Y. c #767D7E",
"T. c #80745D",
"R. c #956469",
"E. c #837172",
"W. c #877F77",
"Q. c #AC7779",
"!. c #5C902C",
"~. c #43823D",
"^. c #769E2E",
"/. c #768E3C",
"(. c #4F9549",
"). c #598E52",
"_. c #688341",
"`. c #61834C",
"'. c #648654",
"]. c #6B8352",
"[. c #64855C",
"{. c #6F8D5E",
"}. c #788D55",
"|. c #71825D",
" X c #60A25E",
".X c #65A15E",
"XX c #67A25F",
"oX c #6B8269",
"OX c #7B8F6D",
"+X c #7C9066",
"@X c #7F9E69",
"#X c #6A8D70",
"$X c #73B56B",
"%X c #76AD73",
"&X c #81A53C",
"*X c #8EB833",
"=X c #87A05E",
"-X c #858167",
";X c #81956B",
":X c #918B7B",
">X c #909075",
",X c #97B26A",
"<X c #88A576",
"1X c #97A476",
"2X c #80C878",
"3X c #B0CD78",
"4X c #6E7882",
"5X c #808789",
"6X c #8D8B8E",
"7X c #999586",
"8X c #9C9984",
"9X c #989694",
"0X c #A19F93",
"qX c #94B883",
"wX c #ABA387",
"eX c #ABA98A",
"rX c #A9A98E",
"tX c #ABA89F",
"yX c #B9B092",
"uX c #9FA0A3",
"iX c #A9ABAF",
"pX c #B8B3AD",
"aX c #C2B99D",
"sX c #C3BFBA",
"dX c #84C180",
"fX c #91D48C",
"gX c #A2E1A1",
"hX c #C4C1A3",
"jX c #CDC4A5",
"kX c #D9D0B4",
"lX c #DFDAB8",
"zX c #D4CEC2",
"xX c #DBD7CA",
/* pixels */
"v F F F F F ] ]  .] ] ] v , tXL.9.' w.j.j.L.j.9.F.F.F.j.' w.9.' Z F F F ' v F 9. .] ] ] ] F F ] ] F ",
"!.F { { { ]  .o.] _._.o.] v xX,X=X=X,X0X7XwX=X=X=X7X6X7X-X-XW.-X_.o.}.-X] v 7X,X}._./._.o.{ F ] F { ",
"/.F { { !._.{ _.{ -X:X}.] v xX7Xd.,X,X0X7X=X,XP.d.tXtXuX7XW.:X7X7X,X=X=X] Z 3X7X}._.=X}._././._.] F ",
"}.F { !.!./.o.}.}.:X7X:Xw.v sX:X&.S.tX7X6XS.H.A.+.uXtX0X7Xk.k.7X0X0X=X=Xw.Z ,X}._.0XtX0X=X=X=X/._./.",
"/.F }.}.=X}.}.:X7X0XtX9XF.v ,Xs.A.+.7X:X5.&.A.A.+.0X0Xk.k.&.+.:X6Xk.C.S.w.Z =X}.=X:X0XtX0X=X=X}.}./.",
"^.F tX0X7X_.-X7X0XtXiX7Xw.v OXA.4X&.J.S.&.A.A.&.+.k.2.N.&.&.+.G.S.N.&.&.*.i =X/.}.:XtXiXiXtX,X/././.",
"/.F tXtX7X}.-X:X0XtXtX0Xw.Y A.4X4X&.+.&.A.4X&.+.&.N.N.A.&.+.+.&.N.A.&.&.+.i &X_.}.}.=X=XiXiX0X=X7X0X",
",X] 0XtX0XW.W.:X9XuXtX7Xs.A.4X4X4X+.&.A.4XN.&.&.A.4XA.&.+.+.&.A.A.&.+.J.;.v &X}.7X7XwX,XpXtX0X0XtX0X",
"=XF :X0X0X7X:X7X9X7X0X,XM.4X4X4XA.+.A.4X4X&.A.A.4XN.&.+.&.&.M.N.&.+.+.r.9.v 3X0X=X7XwXsXpX,X=X=X=X}.",
"&Xx -X7X0X0X9X9X7X}.,XP.A.4XA.4XM.&.4X4XA.A.4X4XA.+.+.+.&.&.&.+.+.+.&.&.U i tXyX,XtXsXsXtX,X=X!._._.",
"!.v =X,X3XxXxXxXsX,X&XM.4X4XM.A.M.A.4XA.&.4X4XA.&.+.&.&.N.N.&.&.+.+.&.A.N.&.U x.,XaXxXzX3XaXkXaX=X&X",
"x x Z Z =.-.-.-.=.v v M.4X4XM.M.M.N.A.&.&.4XA.&.&.N.A.A.4X4XA.M.&.+.+.N.N.&.w w * , , , , , , , Z Z ",
"x v !.] j.-XF.w. .F ] &.A.4XM.&.&.%.Z.i.Z.#X&.&.A.4X4XA.A.N.N.&.&.+.+.&.N.&.I I v v v v v ] F Z Z v ",
"] v 3X=X=X,X,X}.-X0X,Xr.&.A.&.%.%.R ).$X$X).i.&.A.4XA.&.&.+.+.+.+.+.+.&.N.A.&.&.>.>.} !.o./._.F Z v ",
"] x 3X=X:XtXpXtX5XsXtX7X+.&.%.).R z R .X.X).$Xi.&.4XA.&.&.+.+.&.&.&.&.N.&.N.&.&.+.+...!./.=X_.o.F v ",
"] v 3X=X:X7XtXtX9XpXtX0XJ.%.).XXz & z %X%XdX2XXX+.4X4XA.A.&.+.&.&.M.M.A.A.N.&.+.S.r.:X=X7XW.}./.F v ",
"F v ,X:XU.-X:X9X0X0X0X7XoX%X~.~.z & z dXfXdX.X).&.4XA.4X4XA.&.&.+.&.&.M.A.4XA.&.I.0XuXtX7X=X}.{ ] v ",
"] F ,X7X:X}.=XtXpXpXiX9Xy.gX(.~.~.T (.$X(.$X).y.&.4XM.A.A.A.A.A.&.+.+.&.&.N.A.M.&.I.x.wX:X}.}.o.] v ",
"{ F 3XwXtXtXyXsXsXsXsXuXy.gX$X$XdXdXfXfX X2XXX).%.N.M.&.&.&.N.A.M.&.p &.&.+.&.&.&.&.+.r.k.=X}.o.] v ",
"{ v ,X}.tXpXpXpXsXsXsXpXy.fXdX2XdXdXdX%X X(.~.).).V O.p +.+.+.&.O.O.p O.M.N.N.&.+.&.+.+.>._.{ {  .v ",
"{ v ,X=X,XwX0X7XtXsX,X,Xy..X%X.X).~.H y - R N y.).R 1 0 p +.&.&.p p &.p O.N.A.A.&.+.+..._.o.{ { ] v ",
"] x =X=X,X,X,X,X,X,X,X=Xy.).y.R B - l l t ,.~.y.y.y.N 0 O.+.O.&.&.N.A.&.p +.&.A.M.&.&.x.=Xo.{ { ] v ",
"{ x }.aX3X3X3X=X,X3X&X&Xy.XX.X~.z t Q.R.B.#.XXy.y.y.N p M.N.p p &.A.4XA.&.&.+.&.&.&.&.+.|.&X&X&X{ v ",
"x ; v v v v v v v v v v K ).fXXX(.#.Q.R.R.#.~.y.y.).R +.M.A.N.p +.&.N.A.M.M.&.+.+.i i i i v v v v v ",
"] v ] w.w.F F ' ] ] ] ] ] y.dXdX.Xv.8.B.8.D ~.y.).XXy.p &.M.A.&.+.+.&.&.&.&.&.p / w.j.w.' w.w.w.w. .",
"{ v _._.}.j.j.j.z.-X:X}. .B ~.dX)..Xt.c.D ~.$X.XXX).R 0 p &.&.M.&.+.A.+.&.&.&.p r.:X=X-X_.}.j._.j.}.",
"!.F -X-X}.}.}.}.-X:X7X-Xw.B ~.$X$X.X$X$X(.$X2X$X~.R z 0 p p p &.&.+.4X&.O.&.M.&.&.r.}.:XW.:X7X}.o.-X",
"_.] :X7X7X7X9X7X6X7X7X6XF..X).2X.X(.$X2X2X$X(.~.R N & 0 +.p p +.+.&.A.A.p p &.&.&.&.1.7X6X9XtX7XW.W.",
"!.F 9X0XtX0X0X9X7X0X0X7XL.qXa qXa < ).2X2X~.R R y.N & 0 p +.+.+.&.M.&.A.&.p +.p p O.:.:X7X9XtXtXtX0X",
"/.F uXtXtX0X7X7X7X0XtX0XL.b.g.0.$ o ).2X2XN y.y.R z z 0 0 +.p +.M.&.+.&.M.+.p V.4.4.:X6X:X7X0XtXtXtX",
"&XF tX0X0X6XW.:X7X0X0X0XL.Z 3X! f o XX2X2XN y.y.N & N 0 0 p 0 +.&.+.&.+.&.&.p 0X7X7X0X7XW.W.W.7X0X0X",
"&XF uX0X:X}.U.W.-X:X0X7XK.-.3X=Xh o ).2X$Xz R R z & z 0 0 0 0 +.+.p M.+.p &.&.0X7X7X0X7XW.W.Y.:X7X0X",
"&XF 0X7X=X_.-X-Xo.j.-XW.F.Z 3XwX@.o y.2XXX& N | P P 8 0 0 0 0 +.+.0 M.+.s d O.,X=X=X7X9X7X7X6X7X7X0X",
"/.F }.=X=X}.}._._._.{ j.J K `.;Xk < R X.T 8 | >XeX>X<.e 0 0 A +.p L O.+.w.v D.yX7X7X7X0X0X0X=X:X:X}.",
"{ F =X,XaX3X=X,X,X&X&X[  X.X).%X~.N (.T z <.>XhXhXrX>X<.0 l.,Xp L /.q.p }.v w.zX3X3X3X3X3XsX3X,X,X,X",
"x x , v v v v v v v m R fX$X).fX~.N $X$X~.| >XhXrX>X>Xm.e v v 6 v v v 6 v v v Z v v v v v v v v , , ",
"F ; j.j.w.L.W.E.U.U.N ).(.XXR $Xz N ~.$XXX~.m.>X>X<.m.m.Q ' 9.3.' Z Z Z $.Z v Z -.Z Z ' Z ' v v v * ",
"x x jX=X=X:XtX0X0X0XN ).z ).z )._ | ^ ~.~.~.<.<.<.<.m.m.Q }.}.j.j.j.j.w.F.w. .F.Y.W.-X}.}.}.j. .] , ",
"x x 3X=X}.=XtX0X0X0X[.R e.B e.B 7X>X( @X@X| n.n.n.>X>Xm.h.,X=X}.:X:X7X0X0X7X:XW.7XtX,XwX=X=X=X}.] v ",
"{ F 3X}.o.-XtX0X9X0XtX[.tXa.tXp.9X8XT.eXlXeXhXrXrXhXrXm._.W.6X7X:XW.6X0X0X9X6X:X7X0X0XtXtX0X}._.w.Z ",
"{ F 3X}.j.7XtX0X0X0XuXuXtXiXpXtX0X6X'.{.hXlXlXhXhXhX>X<.o.F.W.0X:XL.W.:X6X6X7X7X6X6X0XtXtXtX7X:Xw.v ",
"{ x yXo.{ -X0X0X0XiXiXiXtXiXpXiXtX0X'.<XhXlXlXlXhXrXm.Q { F.:X0X7X:X6X7X7X7X9X0X9X9X0XtXtXtX0X:Xw.v ",
"o.x 3X}.w.-X=X0XpXsXsXpXiXiXiXpXtXwX1XrXeXeXeXeX>X>Xm.Q o.}.7XtXtXtXtXtXuX0X0XuXtXtXtXtXtXtX6XW.w.v ",
"_.x 3X:X:X:X=X0XpXpXtXyXtXtXtXtX=X/._.7.) ) ) ) ) ) ) 7 }.W.7XtXtX0X0XtX0X9X:X:X0X0X0XtXtXtX7X:Xj.v ",
"!.x *X=X7X=Xo.=X7X7X=X=X=X,X=X,X_.!.M f.g g g 2 # # 2 # 6.z.:X0X0X:X}.0X0X:Xj.j.}.=X=X7X7X:X:X-Xj.v ",
"{ x ,X}././.}.}././././.&X&X/._.n W # +X].j g # . # 2 2 2 E }.7X7X=X}.7X=X=X}.}.}.}._.=X}._.}.o.w.Z ",
"x * &X^.&X,X,X,X&X&X&X&X&X,X3X3X  + 3 g u.g # ~ b # 2 2 2 2 ` 3X,X=XtXaX&XaXsX,X3X,X,XyX3X=X,X3X}.v ",
"; * _.F F F F v v v v , , , Z Z 5 r r 3 3 @ 4 v , X # # 2 3   v v v v v v v v v v v Z -.-.' F F F v ",
"v v x ; ; ; ; ; ; x ; x v x ; x v u r q O = x x v : % % 3 O > F F v v v * * ; ; v x F v v x x x v F ",
"/.{ { { { F x x x F ] ] F x ^.!.!.!.G C n !.{ { { 9 c S G W ^.^.^./.{ ] ] x ] { !.!.!.!././.!.!.!.F "
};
