/* XPM */
static char *result[] = {
/* columns rows colors chars-per-pixel */
"50 50 236 2 ",
"   c #0C0C0C",
".  c #1C1E0C",
"X  c #1F021E",
"o  c gray9",
"O  c #1D1D1D",
"+  c #24180C",
"@  c #2C1A08",
"#  c #33061D",
"$  c #251F19",
"%  c #042304",
"&  c #102004",
"*  c #132407",
"=  c #0F310D",
"-  c #1A3C02",
";  c #183009",
":  c #1D2613",
">  c #1D2C14",
",  c #1F321C",
"<  c #193D1E",
"1  c #25280F",
"2  c #3C250C",
"3  c #2F2317",
"4  c #212C1E",
"5  c #302916",
"6  c #233116",
"7  c #233316",
"8  c #141822",
"9  c #222222",
"0  c #272F25",
"q  c #2B2D25",
"w  c #282828",
"e  c #34232E",
"r  c #253D22",
"t  c #2E3C21",
"y  c #2E372C",
"u  c #303C2E",
"i  c #232832",
"p  c #253A33",
"a  c #353E31",
"s  c #363F35",
"d  c #480A1D",
"f  c #49321C",
"g  c #590931",
"h  c #443530",
"j  c #4A3234",
"k  c #4B3D3D",
"l  c #11430F",
"z  c #255507",
"x  c #2E4319",
"c  c #2E411B",
"v  c #364515",
"b  c #344E1C",
"n  c #26511A",
"m  c #1F631B",
"M  c #274E24",
"N  c #294E2F",
"B  c #324924",
"V  c #364C27",
"C  c #3B4629",
"Z  c #3A482D",
"A  c #3B5620",
"S  c #3F5927",
"D  c #33512F",
"F  c #3F542A",
"G  c #3C5D2F",
"H  c #364731",
"J  c #3E4D30",
"K  c #3D4E33",
"L  c #3A493E",
"P  c #325A3E",
"I  c #3C642F",
"U  c #356231",
"Y  c #356E30",
"T  c #434328",
"R  c #514D20",
"E  c #455F2D",
"W  c #4C582F",
"Q  c #4A5E2F",
"!  c #525326",
"~  c #4A4431",
"^  c #5D4634",
"/  c #544832",
"(  c #5A4E34",
")  c #564D3F",
"_  c #495636",
"`  c #475E36",
"'  c #45503D",
"]  c #4A5238",
"[  c #496425",
"{  c #4C6028",
"}  c #517B26",
"|  c #4B6D3C",
" . c #5D6035",
".. c #596E3F",
"X. c #42753E",
"o. c #677634",
"O. c #2D3542",
"+. c #333943",
"@. c #3E3F41",
"#. c #6A0846",
"$. c #5F3A4E",
"%. c #3C4041",
"&. c #3F5944",
"*. c #3C4552",
"=. c #464F43",
"-. c #444749",
";. c #4E494A",
":. c #4D5746",
">. c #4D5C40",
",. c #4D5D41",
"<. c #4E5B45",
"1. c #505442",
"2. c #5D5D42",
"3. c #525049",
"4. c #55514C",
"5. c #5B4B52",
"6. c #565654",
"7. c #5B5C54",
"8. c #56575B",
"9. c #53575D",
"0. c #5A5B5A",
"q. c #5C5B5C",
"w. c #675B44",
"e. c #635C49",
"r. c #704F51",
"t. c #754954",
"y. c #615C58",
"u. c #785955",
"i. c #556546",
"p. c #5A6645",
"a. c #5E6C42",
"s. c #52604B",
"d. c #55624B",
"f. c #5E684F",
"g. c #4B7A45",
"h. c #5E7642",
"j. c #597E42",
"k. c #597847",
"l. c #57764A",
"z. c #4D6D51",
"x. c #5C6C50",
"c. c #5F7853",
"v. c #5B7C57",
"b. c #72674D",
"n. c #69764B",
"m. c #66645A",
"M. c #61615E",
"N. c #647556",
"B. c #68745D",
"V. c #6A7B5C",
"C. c #76765B",
"Z. c #71705D",
"A. c #78785D",
"S. c #465262",
"D. c #505862",
"F. c #7F5562",
"G. c #5A6572",
"H. c #656664",
"J. c #696761",
"K. c #6E6D64",
"L. c #65676B",
"P. c #696B6A",
"I. c #6B6E6E",
"U. c #736F67",
"Y. c #6E7070",
"T. c #6F7374",
"R. c #757573",
"E. c #757577",
"W. c #767D7E",
"Q. c #80745D",
"!. c #956469",
"~. c #837172",
"^. c #877F77",
"/. c #AC7779",
"(. c #5C902C",
"). c #43823D",
"_. c #769E2E",
"`. c #768E3C",
"'. c #4F9549",
"]. c #598E52",
"[. c #59805D",
"{. c #688341",
"}. c #648654",
"|. c #6B8352",
" X c #688D51",
".X c #6F8D5E",
"XX c #788D55",
"oX c #71825D",
"OX c #60A25E",
"+X c #65A15E",
"@X c #67A25F",
"#X c #7C9066",
"$X c #6A8D70",
"%X c #7A9171",
"&X c #73B56B",
"*X c #76AD73",
"=X c #81A53C",
"-X c #8EB833",
";X c #87A05E",
":X c #858167",
">X c #889567",
",X c #918E70",
"<X c #918B7B",
"1X c #909075",
"2X c #97B26A",
"3X c #88A576",
"4X c #80C878",
"5X c #B0CD78",
"6X c #6E7882",
"7X c #787D80",
"8X c #8D8B8E",
"9X c #999586",
"0X c #989694",
"qX c #A09E8A",
"wX c #A19F93",
"eX c #94B883",
"rX c #ABA387",
"tX c #ABA98A",
"yX c #A9A98E",
"uX c #A3BE8B",
"iX c #ABA89F",
"pX c #B9B092",
"aX c #9FA0A3",
"sX c #A9ABAF",
"dX c #B8B3AD",
"fX c #C2B99D",
"gX c #C3BFBA",
"hX c #84C180",
"jX c #91D48C",
"kX c #A2E1A1",
"lX c #C4C1A3",
"zX c #CDC4A5",
"xX c #D9D0B4",
"cX c #DFDAB8",
"vX c #D4CEC2",
"bX c #DBD7CA",
/* pixels */
"c A A A A A [ [  .[ [ [ c > iXU.y._ p.n.n.U.n.y.J.J.J.n._ p.y._ C A A A _ c A y. .[ [ [ [ A A [ [ A ",
"(.A } } } [  .o.[ {.{.o.[ c bX2X;X;X2XwX9XrX;X;X;X9X8X9X:X:X^.:X{.o.XX:X[ c 9X2XXX{.`.{.o.} A [ A } ",
"`.A } } (.{.} {.} :X<XXX[ c bX9X;X2X2XwX9X;X2X;Xx.7XiXaX9X^.<X9XH.2X;X;X[ C 5X9XXX{.;XXX{.`.`.{.[ A ",
"XXA } (.(.`.o.XXXX<X9X<Xp.c gX<X^.9XY.H.8X9X^.^.+.G.7XP.9X<X<XH.*.wX;X;Xp.C 2XXX{.wXiXwX;X;X;X`.{.`.",
"`.A XXXX;XXXXX<X9XwXiX0XJ.u N.:.J.^.+.*.q.q.<X^.+.G.G.*.M.^.W.+.G.I.8X9Xp.C ;XXX;X<XwXiXwX;X;XXXXX`.",
"_.A iXwX9X{.:X9XwXiXsXH.=.*.*.D.d.M.+.*.*.D.H.q.+.*.G.G.*.q.H.*.6XG.T.wXp.c ;X`.XX<XiXsXsXiX2X`.`.`.",
"`.A iXiX9XXX:X<XwXiXiXP.+.*.*.G.D.*.+.+.*.G.D.D.*.+.*.6XG.*.+.*.6X6XG.7XU.c =X{.XXXX;X;XsXsXwX;X9XwX",
"2X[ wXiXwX^.^.<X0XaXiX9X:.u +.*.G.G.*.+.+.*.G.6XG.*.*.D.6XG.*.+.6X6X6XG.9.c =XXX9X9XrX2XdXiXwXwXiXwX",
";XA <XwXwX9X<X9X0X9XwX2Xo.u +.+.*.D.S.*.*.+.*.D.6XG.G.*.6X6XG.+.G.6X6X6XS.c 5XwX;X9XrXgXdX2X;X;X;XXX",
"=Xz :X9XwXwX0X0X9XXX2Xx.s *.*.+.+.+.*.*.*.+.+.+.G.6X6XG.G.6X6X*.S.6XG.6XG.L iXpX2XiXgXgXiX2X;X(.{.{.",
"(.c ;X2X5XbXbXbXgXN...*.D.G.*.+.+.*.*.D.D.*.*.+.*.G.6X6X*.G.6XG.S.G.S.6X6XS._ 2X2XfXbXvX5XfXxXfX;X=X",
"z z C C -.;.;.;.-.u u *.D.D.+.+.*.S.G.6X6XG.G.D.*.*.G.6X*.*.G.D.S.S.S.6X6XS.& & & > > > > > > > C C ",
"z c (.[ n.:XJ.p. .H K *.D.*.+.+.*.*.D.D.G.G.6X6XG.*.*.$XP N p &.*.*.S.6XG.*.[ [ c c c c c [ A C C c ",
"[ c 5X;X;X2XN.d.7.*.*.G.D.*.+.+.+.+.+.+.*.*.G.6XG.*.[.].'.m l ].z.&.*.G.*.,.o.{.{.{.(.(.o.`.{.A C c ",
"[ z 5X;X<XiXE.+.+.*.*.D.*.D.*.*.*.*.+.+.*.*.G.6X*.z.4X].+XY Y @X@X].&.*.+.;X{.XX<XXX`.(.`.;X{.o.A c ",
"[ c 5X;X<X9XiXY.L.+.*.D.G.G.S.S.*.*.+.*.G.G.6X6X+.@X4XhX*X*X*X].].@X].&.Y.iX9X9X9XXX<X;X9X^.XX`.A c ",
"A c 2X<XR.:X<X0XP.*.G.6XG.S.*.*.+.*.*.G.6X6XG.6X*.].+XhXjXhX*Xg.Y ).).*X%XsXiXdXiXwXaXiX9X;XXX} [ c ",
"[ A 2X9X<XXXx.Y.*.S.G.D.*.*.+.+.*.G.G.G.G.G.S.6X*.g.].&X4X&X+X].).).'.kXg.iXwXpXdXiX2XrX<XXXXXo.[ c ",
"} A 5XrXY.Y.+.*.*.*.*.+.*.*.i *.S.G.D.*.*.*.S.D.&.].@X4XjXjXjXhXhX&X&XkXg.rXXX2XiX2X_.XX<X;XXXo.[ c ",
"} c 2XXXY.+.+.*.+.*.D.D.S.O.i O.O.*.+.+.+.i O.N ].].).'.OX*XhXhXhX4XhXjXg.iXrXiX2X2X;X`.{.{.} }  .c ",
"} c 2X;X2XK.+.+.*.G.G.D.O.i *.i i *.*.+.i 8 < Y ].g.m Y = r D ).].+X*X+Xg.wXwX2X;X;X;X`.{.o.} } [ c ",
"[ z ;X;X2XN.*.*.S.G.*.+.i *.G.D.*.*.O.+.O.8 m g.g.g.).1.e j j = M Y g.].g.`.;X`.`.2X;X2X;Xo.} } [ c ",
"} z XXfXoX+.*.*.*.*.+.*.*.G.6XG.*.i i D.S.i m g.g.g.@X$.F.!./.e l ).+X@Xg.2X=X=X5X5X2X5X5X=X=X=X} c ",
"z - c c u u u u +.+.*.S.S.G.D.*.+.i D.G.S.+.Y ].g.g.).$.!.!./.$.'.@XjX].G c c c c c c c c c c c c c ",
"[ c [ p.p.A A _ K i *.*.*.*.*.+.+.*.G.S.*.i g.@X].g.).Z t.F.t.V.+XhXhXg.C c } _  .p.n.p._ p.p.p.p. .",
"} c {.{.XXn.n.n.4.i *.*.*.+.G.+.*.S.*.*.i 8 Y ].@X+X&X).Z B.f.+X].hX).M _ c 2X(.XX<X;X:X{.XXn.{.n.XX",
"(.A :X:XXXXXXXd.*.*.S.*.O.*.6X+.*.*.i i i 8 l Y ).&X4X&X'.&X&X+X&X&X).M [ c 2X<X9XXXXX<X^.<X9XXXo.:X",
"{.[ <X9X9X9X8.*.*.*.*.i i G.G.*.+.+.i i +.8 % m Y ).'.&X4X4X&X'.+X4X].+X[ c =XiXwX9X9X9X8X0XiX9X^.^.",
"(.A 0XwXiXwX0.O.i i +.i *.G.*.S.*.+.+.+.i 8 % m g.Y Y ).4X4X]., a eXa eX_ C bXiXiXwX^.<X9X0XiXiXiXwX",
"`.A aXiXiXwX9X6.6.0.i +.S.*.+.*.S.+.i +.8 8 l l Y g.g.m 4X4X].X # u.5.>Xp.%.bXiXwXwX<X8X<X9XwXiXiXiX",
"=XA iXwXwX8X^.<X9XwXi *.*.+.*.+.*.+.8 i 8 8 m % m g.g.m 4X4X@XX d r.9X9Xp.-.bXwX9X9XwX9X^.^.^.9XwXwX",
"=XA aXwX<XXXR.^.:X<X*.*.i +.S.i +.+.8 8 8 8 l % l Y Y l &X4X].X g wXiX:X .C vXwX9X9XwX9X^.^.W.<X9XwX",
"=XA wX9X;X{.:X:Xo.n.O.q.@.+.S.8 +.+.8 8 8 8 7 J J | m % @X4Xg.X #.;X2X{.p.C vX2X;X;X9X0X9X9X8X9X9XwX",
"`.A XX;X;XXXXX{.{.{.B n._ +.O.m.i +.>.8 8 q 2.1XtX1X| 7 U X.` k h k. Xj.I c dXpX9X9X9XwXwXwX;X<X<XXX",
"} A ;X2XfX5X;X2X2X=X=Xo.[ i y ;XQ i =Xi.8 2.1XyXlXlX1X2.l U 2.1X).*X].+XOXn p.vX5X5X5X5X5XgX5X2X2X2X",
"z z > c c c c c c c c c c 4 c c c 0 c c q A.1X1XyXlX1X| )..X2.1X).jX].&XjXY n C c c c c c c c c > > ",
"A - n.n.p.U.^.~.R.R.U.U.J.p.A A p.p.A p.T A.A.2.1X1XA.}.3XA.T 2.l &XY @X'.].m C ;.C C _ C _ c c c & ",
"z z zX;X;X<XiXwXwXwXwX0X9X<Xn.XX:X^.:X<XT A.A.2.2.2.2.C.C.2./ 2.V ].l ].l ].m J.W.^.:XXXXXXXn. .[ > ",
"z z 5X;XXX;XiXwXwXwXiXaXwXwXwX9X9X<X<X9XZ.A.1X1XC.C.C.2.,X,X^ 1X<XM <.M s.Y l.^.9XiX2XrX;X;X;XXX[ c ",
"} A 5XXXo.:XiXwX0XwXiXiXiXiXiXaX0X<X<X<X:XA.yXlXyXyXlXtXcXtXQ.qX<X' 8Xs.wXv.8X<X9XwXwXiXiXwXXX{.p.C ",
"} A 5XXXn.9XiXwXwXwXaXaXiXsXdXiXwX8X<X:X} 2.1XlXlX3XuXcXlX.X}.wX<XU.^.<X8X8X9X9X8X8XwXiXiXiX9X<Xp.c ",
"} z pXo.} :XwXwXwXsXsXsXiXsXdXsXiXwX8X:XXXT A.yXuX&X&XlXlX3X}.wX9X<X8X9X9X9X0XwX0X0XwXiXiXiXwX<Xp.c ",
"o.z 5XXXp.:X;XwXdXgXgXdXsXsXsXdXiXrX;XXX<XT A.1X@X4X&X1XtXyXqXiXiXiXiXiXaXwXwXaXiXiXiXiXiXiX8X^.p.c ",
"{.z 5X<X<X<X;XwXdXdXiXpXiXiXiXiX;X`.{.{.XX5 ( ( uXeXuX1XA.e.9XiXiXwXwXiXwX0X<X<XwXwXwXiXiXiX9X<Xn.c ",
"(.z -X;X9X;Xo.;X9X9X;X;X;X2X;X2X{.(.(.o.R @ 2 b.tX1XcX1Xw.c.) wXwX<XXXwXwX<Xn.n.XX;X;X9X9X<X<X:Xn.c ",
"} z 2XXX`.`.XXXX`.`.`.`.=X=X`.{.(.`.;X! 2 2 2 b.~ A.lXw.|.#X@ 3.3.;XXX9X;X;XXXXXXXXX{.;XXX{.XXo.p.C ",
"z & =X_.=X2X2X2X=X=X=X=X=X2X5X5X5X2Xa.2 2 2 2 @ v ] e.f h.f 3 O   ;XiXfX=XfXgX2X5X2X2XpX5X;X2X5XXXc ",
"- & {.A A A A c c c c > > > C C C c   3 2 @ @ 1 > > . + 3 3 w w : c c c c c c c c c C ;.;._ A A A c ",
"c c z - - - - - - z - z c z - z c A 6 o 3 $ $ ; c z - * o 9 w t A c c c & & - - c z A c c z z z c A ",
"`.} } } } A z z z A [ [ A z _.(.(.(.(.x S E F x } [ z [ b W { _._.`.} [ [ z [ } (.(.(.(.`.`.(.(.(.A "
};
