/* XPM */
static char *result[] = {
/* columns rows colors chars-per-pixel */
"50 50 237 2 ",
"   c #0C0C0C",
".  c #140E08",
"X  c #1D1005",
"o  c #1F021E",
"O  c #0C1D13",
"+  c #111211",
"@  c #1F1913",
"#  c #2C1A08",
"$  c #33061D",
"%  c #042304",
"&  c #102004",
"*  c #132407",
"=  c #0F310D",
"-  c #1A3C02",
";  c #183009",
":  c #19310F",
">  c #1D2C14",
",  c #1F3416",
"<  c #1E3910",
"1  c #1F321C",
"2  c #193D1E",
"3  c #3C250C",
"4  c #2F2317",
"5  c #2B2B16",
"6  c #233316",
"7  c #141822",
"8  c #371525",
"9  c #1B2E23",
"0  c #222222",
"q  c #212C23",
"w  c #282828",
"e  c #34232E",
"r  c #203122",
"t  c #253D22",
"y  c #303C2E",
"u  c #232832",
"i  c #2C2F35",
"p  c #353E31",
"a  c #480A1D",
"s  c #49321C",
"d  c #440532",
"f  c #590931",
"g  c #721231",
"h  c #4A3234",
"j  c #11430F",
"k  c #255507",
"l  c #29411A",
"z  c #2E4319",
"x  c #2E411B",
"c  c #1F631B",
"v  c #2F4424",
"b  c #274E24",
"n  c #294E2F",
"m  c #354323",
"M  c #3E4C24",
"N  c #3B4629",
"B  c #3B4929",
"V  c #3A482D",
"C  c #315321",
"Z  c #3B5620",
"A  c #3F5927",
"S  c #33512F",
"D  c #2F4933",
"F  c #364432",
"G  c #3E4D30",
"H  c #3B4835",
"J  c #365532",
"K  c #325A3E",
"L  c #356231",
"P  c #356E30",
"I  c #414D24",
"U  c #434328",
"Y  c #454C2F",
"T  c #4A4431",
"R  c #474C3B",
"E  c #46483F",
"W  c #5D4634",
"Q  c #5A4E34",
"!  c #564D3F",
"~  c #495636",
"^  c #4E5436",
"/  c #425932",
"(  c #46523B",
")  c #4C573B",
"_  c #4A563F",
"`  c #496425",
"'  c #43722D",
"]  c #517B26",
"[  c #426036",
"{  c #436C32",
"}  c #43643D",
"|  c #4B6D3C",
" . c #5D6035",
".. c #596E3F",
"X. c #42753E",
"o. c #677634",
"O. c #2D3542",
"+. c #333943",
"@. c #5F3A4E",
"#. c #3F5944",
"$. c #3C4552",
"%. c #464F43",
"&. c #444749",
"*. c #4E494A",
"=. c #4D5746",
"-. c #4D5D41",
";. c #47544C",
":. c #4E5C4C",
">. c #505442",
",. c #5D5D42",
"<. c #4D4F51",
"1. c #565654",
"2. c #5A5B5A",
"3. c #5C5B5C",
"4. c #754954",
"5. c #615C58",
"6. c #785955",
"7. c #496B46",
"8. c #4F654B",
"9. c #466D4E",
"0. c #556546",
"q. c #5A6645",
"w. c #55624B",
"e. c #566649",
"r. c #5E684F",
"t. c #4B7A45",
"y. c #5E7642",
"u. c #486653",
"i. c #4D6D51",
"p. c #5C6C50",
"a. c #5B7B50",
"s. c #6E634D",
"d. c #72674D",
"f. c #62724D",
"g. c #69764B",
"h. c #637B4F",
"j. c #61615E",
"k. c #647556",
"l. c #617951",
"z. c #68745D",
"x. c #6A7B5C",
"c. c #76765B",
"v. c #71705D",
"b. c #78785D",
"n. c #465262",
"m. c #505862",
"M. c #595F65",
"N. c #7F5562",
"B. c #5F6060",
"V. c #567A60",
"C. c #5A6572",
"Z. c #5E6770",
"A. c #656664",
"S. c #696761",
"D. c #66686C",
"F. c #696B6A",
"G. c #736F67",
"H. c #75746A",
"J. c #6E7070",
"K. c #6F7374",
"L. c #757573",
"P. c #757577",
"I. c #767D7E",
"U. c #831145",
"Y. c #9D1A45",
"T. c #8A4951",
"R. c #80745D",
"E. c #956469",
"W. c #837172",
"Q. c #877F77",
"!. c #AC7779",
"~. c #5C902C",
"^. c #43823D",
"/. c #769E2E",
"(. c #768E3C",
"). c #5A8A42",
"_. c #4F9549",
"`. c #5F8056",
"'. c #598E52",
"]. c #59805D",
"[. c #688341",
"{. c #6A8444",
"}. c #77834C",
"|. c #6B8352",
" X c #6F8D5E",
".X c #788D55",
"XX c #71825D",
"oX c #60A25E",
"OX c #65A15E",
"+X c #67A25F",
"@X c #718765",
"#X c #7A9169",
"$X c #79986E",
"%X c #6A8D70",
"&X c #7CA06A",
"*X c #73B56B",
"=X c #76AD73",
"-X c #81A53C",
";X c #8EB833",
":X c #87A05E",
">X c #858167",
",X c #8C8B77",
"<X c #918E70",
"1X c #9A8C72",
"2X c #918B7B",
"3X c #909075",
"4X c #97B26A",
"5X c #88A576",
"6X c #97A476",
"7X c #80C878",
"8X c #B0CD78",
"9X c #6E7882",
"0X c #868786",
"qX c #8D8B8E",
"wX c #999586",
"eX c #989694",
"rX c #A19F93",
"tX c #94B883",
"yX c #ABA387",
"uX c #ABA98A",
"iX c #A9A98E",
"pX c #ABA89F",
"aX c #B9B092",
"sX c #9FA0A3",
"dX c #A9ABAF",
"fX c #B8B3AD",
"gX c #C2B99D",
"hX c #C3BFBA",
"jX c #84C180",
"kX c #91D48C",
"lX c #A2E1A1",
"zX c #C4C1A3",
"xX c #CDC4A5",
"cX c #D9D0B4",
"vX c #DFDAB8",
"bX c #D4CEC2",
"nX c #DBD7CA",
/* pixels */
"x Z Z Z Z Z ` `  .` ` ` x > pXG.5.~ q.g.g.G.g.5.S.S.S.g.~ q.5.~ N Z Z Z ~ x Z 5. .` ` ` ` Z Z ` ` Z ",
"~.Z ] ] ] `  .o.` [.[.o.` x nX4X:X:X4XrXwXyX:X:X:XwXqXwX>X>XQ.>X[.o..X>X` x wX4X.X[.(.[.o.] Z ` Z ] ",
"(.Z ] ] ~.[.] [.] >X2X.X` x nXwX:X4X4XrXwX:X4X:X:XJ.pXsXwXQ.2XwXwX4X:X:X` N 8XwX.X[.:X.X[.(.(.[.` Z ",
".XZ ] ~.~.(.o..X.X2XwX2Xq.x hX2XQ.wXpXA.qXwXQ.Q.A.$.J.rXwX2X2XA.rXrX:X:Xq.N 4X.X[.rXpXrX:X:X:X(.[.(.",
"(.Z .X.X:X.X.X2XwXrXpXeX<.x 4Xg.S.Q.wX+.D.3.2XQ.+.C.+.2X2X3.Z.+.qX2XqXwXq.N :X.X:X2XrXpXrX:X:X.X.X(.",
"/.Z pXrXwX[.>XwXrXpXdXwX+.y XXw..X2XrX+.C.$.A.3.$.9X+.-.w.$.C.+.wXqXwXF.%.y :X(..X2XpXdXdXpX4X(.(.(.",
"(.Z pXpXwX.X>X2XrXpXpXrX+.$.m.$.w.A.A.m.9Xn.+.$.C.9X+.+.$.C.C.+.J.K.K.m.$.+...[..X.X:X:XdXdXrX:XwXrX",
"4X` rXpXrXQ.Q.2XeXsXpXwX=.$.C.C.m.$.+.9X9Xn.+.C.9X9X+.$.C.9X$.$.$.C.C.C.$.y ...XwXwXyX4XfXpXrXrXpXrX",
":XZ 2XrXrXwX2XwXeXwXrX4X) +.$.C.9XC.$.9X9XC.+.9X9X9X+.C.9X9X$.C.C.9XC.$.+.x 8XrX:XwXyXhXfX4X:X:X:X.X",
"-Xk >XwXrXrXeXeXwXw.4Xp.+.+.+.n.9X9XC.C.9X9X$.C.9XC.$.9X9XC.C.9X9XC.$.+.+.y pXaX4XpXhXhXpX4X:X~.[.[.",
"~.x :X4X8XnXnXnXhX+.h.m.m.$.$.$.C.9X9X$.C.9XC.n.9Xn.C.9XC.$.9X9XC.$.$.$.m.m.;.k.4XgXnXbX8XgXcXgX:X-X",
"k k N N &.*.*.*.&.+.$.C.9XC.C.$.$.C.9X$.$.C.m.n.C.n.m.C.$.$.9XC.$.$.C.C.9X9XC.$.q > > > > > > > N N ",
"k x ~.` g.>XS.q.R +.+.n.C.9X9XC.$.$.9.K 9 u.#.$.n.$.#.u.i.V.%X$.$.C.9X9XC.C.m.$.y x x x x ` Z N N x ",
"` x 8X:X:X4X4Xw.+.+.+.$.n.C.9XC.$.#._.c j '.'.#.$.#.t.P '.*X*X#.$.C.9XC.n.$.+.+.-.[.~.~.o.(.[.Z N x ",
"` k 8X:X2XpXfXJ.M.+.+.$.n.C.9X$.].'.OXP P +X+X'.#.'.P j P OXOX'.].$.9XC.n.$.+.+.+.w.(.~.(.:X[.o.Z x ",
"` x 8X:X2XwXpXpXeX+.$.n.C.9X9X+.7XjX=X=X=X'.'.+X'.+Xj % j =X=XjX7X+.9X9XC.n.$.+.A.w.2X:XwXQ..X(.Z x ",
"Z x 4X2XL.>X2XeXF.$.n.C.9XC.9X$.OXjXkXjX=Xt.P ^.^.^.j % j jXkXjXOX$.9XC.9XC.n.$.J.rXsXpXwX:X.X] ` x ",
"` Z 4XwX2X.Xp.J.$.n.C.9XC.n.9Xn.'.*X7X*XOX'.^.^._.^.^.L _.*X_.*X'.n.9Xn.C.9XC.n.$.J.4XyX2X.X.Xo.` x ",
"] Z 8XyXpXpXH.+.$.$.m.m.n.n.m.$.+X7XkXkXkXjXjX*X*X*XjXjXkXkXoX7X+X$.m.n.$.m.m.$.$.$./..X2X:X.Xo.` x ",
"] x 4X.XpXfXfXP.u +.+.+.n.C.m.+.^._.=XjXjXjXkXkX*XkXkXjXjXjX=X_.^.+.m.C.$.+.+.+.u $.p.(.[.[.] ]  .x ",
"] x 4X:X4XyXrXwX7 +.+.$.C.9XC.+.P = t S ^.'.OX=XOX=XOX'.^.S t = P +.C.9XC.$.+.+.7 p.p.(.[.o.] ] ` x ",
"` k :X:X4X4X4X0.u +.$.C.9XC.$.i.>.e h e = b P t.'.t.P b = e h e >.i.$.C.9XC.$.+.7 0.:X4X:Xo.] ] ` x ",
"] k .XgX8X8XXXu +.$.C.9XC.$.#.+X@.N.!.N.e j ^.OXjXOX^.j e N.!.N.@.+X#.$.C.9XC.$.u f.4X8X8X-X-X-X] x ",
"k - x x x x y $.$.n.C.m.$.+.t.^.@.E.!.E.@._.+XkXlXkX+X_.@.E.!.E.@.^.t.+.$.m.C.n.$.y y x x x x x x x ",
"` x ` q.q.Z Z ;.O.$.$.$.+.+.t.P V 4.N.4.x.OX*XlXjXlX*XOXx.4.N.4.V P t.+.+.$.$.$.$.+.=.q.~ q.q.q.q. .",
"] x [.[..Xg.g.g.7 u +.C.+.+.P P P V z.r.OX'.kXoXL oXkX'.OXr.z.V P P P +.+.C.+.u u j.:X>X[..Xg.[.g..X",
"~.Z >X>X.X.X.X( 7 7 +.9X+.$.n P P ^.*X*XOX*XkX^.L ^.kX*XOX*X*X^.P P n $.+.9X+.7 7 ( .X2XQ.2XwX.Xo.>X",
"[.` 2XwXwXwXeX1.7 u m.C.$.n.+.'.P ^._._.*X_.OX*X'.*XOX_.*X_._.^.P '.+.n.$.C.m.u 7 1.wXwXqXeXpXwXQ.Q.",
"~.Z eXrXpXrXrXeX1.$.9X$.$.n.+.L '.^.P c '.1 #X8.#X8.#X1 '.c P ^.'.L +.n.$.$.9X$.B.rXQ.2XwXeXpXpXpXrX",
"(.Z sXpXpXrXwXwXwXn.m.u +.$.u O L ^.t.c '.o 6.$ 6.$ 6.o '.c t.^.L O 9 $.+.u m.n.rXrX2XqX2XwXrXpXpXpX",
"-XZ pXrXrXqXQ.2XwX$.F.2.+.u 7 7 O j P c +Xo a a a a a o +Xc P j O O O u +.i 0X$.wXwXrXwXQ.Q.Q.wXrXrX",
"-XZ sXrX2X.XL.Q.>Xj.`.@X#.D 2 E E % j c '.o a f g f a o '.c j % E j 2 D #.[ $XF.wXwXrXwXQ.Q.I.2XwXrX",
"-XZ rXwX:X[.>X>Xo.{ oXOX'.=X^.| b.6 G j P o f U.Y.U.f o P j G e.b.c ^.=X'.OXoX).:X:XwXeXwXwXqXwXwXrX",
"(.Z .X:X:X.X.X[.' P kX*X'.kX^.c b.c.3XG j p d T.U.T.d p j G 3XiXb.c ^.kX'.*XkXP a.wXwXrXrXrX:X2X2X.X",
"] Z :X4XgX8X:X4Xc '._.+XP *Xj | ,.iX3XuXG b + G 8 G + b G uX3XiX,.c j *XP +X_.'.c 8X8X8X8XhX8X4X4X4X",
"k k > x x x x x c '.j '.j '.6 ,.U iX,.uXuXe.G X.L X.G e.uXuX3XiXU j % '.j '.j '.c x x x x x x x > > ",
"Z - g.g.q.G.Q.W.7.P H b F b M M ^ 3X<XuXuX3X3X&X*X&X3X3XuX,.iXiXY , , b r b : P J N N ~ N ~ x x x & ",
"k k xX:X:X2XpXrXrX`.rX:.wX_ g..X>Xl.uXzXuXuXzXs.&Xs.3XuXuX<XiXc.g.g.g.v S.v  .} I.Q.>X.X.X.Xg. .` > ",
"k k 8X:X.X:XpXrXrXrXpXsXrXrXrXwXwXP  X5XuX<XvXW 3XW uXvXuXzXiX,.2X2XwXrXrXwX2XQ.wXpX4XyX:X:X:X.X` x ",
"] Z 8X.Xo.>XpXrXeXrXpXpXpXpXpXsXeXc +X*X Xc.vX1XiXR.uXvXuXzXiXb.2XQ.qXrXrXeXqX2XwXrXrXpXpXrX.X[.q.N ",
"] Z 8X.Xg.wXpXrXrXrXsXsXpXdXfXpXrXC ^.*X*X3XvXzX5X5X3XvXuXvX3X,X2XG.Q.2XqXqXwXwXqXqXrXpXpXpXwX2Xq.x ",
"] k aXo.] >XrXrXrXdXdXdXpXdXfXdXpXv.c +X7X XuXzX5X5XzXvXuXzXb.rXwX2XqXwXwXwXeXrXeXeXrXpXpXpXrX2Xq.x ",
"o.k 8X.Xq.>X:XrXfXhXhXfXdXdXdXfXpXyXc +X7X*X XuXiX3XuXuXuX3Xb.pXpXpXpXpXsXrXrXsXpXpXpXpXpXpXqXQ.q.x ",
"[.k 8X2X2X2X:XrXfXfXpXaXpXpXpXpX:X(.|  XtXtX XQ d.Q Q Q Q Q T pXpXrXrXpXrXeX2X2XrXrXrXpXpXpXwX2Xg.x ",
"~.k ;X:XwX:Xo.:XwXwX:X:X:X4X:X4X[.{.3XT iX3XQ # 3 3 s s 3 # ! rXrX2X.XrXrX2Xg.g..X:X:XwXwX2X2X>Xg.x ",
"] k 4X.X(.(..X.X(.(.(.(.-X-X(.[.~.}.6X< 3X X3 X # 3 |.|.3 X .XwXwX:X.XwX:X:X.X.X.X.X[.:X.X[..Xo.q.N ",
"k & -X/.-X4X4X4X-X-X-X-X-X4X8X8X8X4X8X< T / # X X # y.y.# X :X8X4X:XpXgX-XgXhX4X8X4X4XaX8X:X4X8X.Xx ",
"- & [.Z Z Z Z x x x x > > > N N N x N 5 . . . . . @ 4 4 @ . x x x x x x x x x x x x N *.*.~ Z Z Z x ",
"x x k - - - - - - k - k x k - k x Z Z x ; * ; ;   0 w w 0   x Z Z x x x & & - - x k Z x x k k k x Z ",
"(.] ] ] ] Z k k k Z ` ` Z k /.~.~.~.~.] ~.~.] ] z m l B A I /././.(.] ` ` k ` ] ~.~.~.~.(.(.~.~.~.Z "
};
