/* XPM */
static char *result[] = {
/* columns rows colors chars-per-pixel */
"50 50 182 2 ",
"   c #0C0C0C",
".  c #140E08",
"X  c #1D1005",
"o  c #0C1D13",
"O  c #1F1913",
"+  c #2C1A08",
"@  c #042304",
"#  c #102004",
"$  c #1A3C02",
"%  c #183009",
"&  c #19310F",
"*  c #1E2F12",
"=  c #1D2C14",
"-  c #153713",
";  c #1F3416",
":  c #1F3C12",
">  c #193D1E",
",  c #3C250C",
"<  c #2F2317",
"1  c #233B14",
"2  c #141822",
"3  c #1B2E23",
"4  c #222222",
"5  c #212C23",
"6  c #282828",
"7  c #203122",
"8  c #293527",
"9  c #27322B",
"0  c #313021",
"q  c #303C2E",
"w  c #232832",
"e  c #253A33",
"r  c #49321C",
"t  c #42362D",
"y  c #563F2C",
"u  c #11430F",
"i  c #1F401A",
"p  c #255507",
"a  c #2D4413",
"s  c #2E4319",
"d  c #2E411B",
"f  c #3C5018",
"g  c #1F631B",
"h  c #2F4424",
"j  c #294E2F",
"k  c #354323",
"l  c #364C27",
"z  c #3B4629",
"x  c #365222",
"c  c #3B5620",
"v  c #3F5927",
"b  c #364731",
"n  c #364432",
"m  c #3B4835",
"M  c #3C4B3B",
"N  c #3A493E",
"B  c #414D24",
"V  c #434328",
"C  c #454C2F",
"Z  c #4A5E2F",
"A  c #4A4431",
"S  c #474C3B",
"D  c #46483F",
"F  c #5A4E34",
"G  c #495636",
"H  c #4E5436",
"J  c #46523B",
"K  c #4A563F",
"L  c #496425",
"P  c #517B26",
"I  c #4D6A37",
"U  c #4B6D3C",
"Y  c #516335",
"T  c #596137",
"R  c #5D6035",
"E  c #54633F",
"W  c #5D673E",
"Q  c #677634",
"!  c #2D3542",
"~  c #333943",
"^  c #3B3F45",
"/  c #3C4552",
"(  c #464F43",
")  c #444749",
"_  c #4E494A",
"`  c #494A4D",
"'  c #4D5746",
"]  c #4D5C40",
"[  c #4D5D41",
"{  c #4E5B45",
"}  c #4E5C4C",
"|  c #5D5D42",
" . c #55514C",
".. c #414852",
"X. c #565654",
"o. c #5B5C54",
"O. c #505158",
"+. c #5A5B5A",
"@. c #5C5B5C",
"#. c #615C58",
"$. c #446240",
"%. c #556546",
"&. c #5A6645",
"*. c #52604B",
"=. c #55624B",
"-. c #5E7642",
";. c #576456",
":. c #5C6C50",
">. c #5E6058",
",. c #72674D",
"<. c #69764B",
"1. c #637B4F",
"2. c #67665B",
"3. c #61615E",
"4. c #647556",
"5. c #71705D",
"6. c #78785D",
"7. c #465262",
"8. c #505862",
"9. c #595F65",
"0. c #5F6060",
"q. c #5F6168",
"w. c #5A6572",
"e. c #656664",
"r. c #696761",
"t. c #696B6A",
"y. c #6B6E6E",
"u. c #736F67",
"i. c #79796D",
"p. c #686C72",
"a. c #6E7070",
"s. c #6F7374",
"d. c #6D7178",
"f. c #757573",
"g. c #757577",
"h. c #73787A",
"j. c #767D7E",
"k. c #7A7B7E",
"l. c #837172",
"z. c #877F77",
"x. c #5C902C",
"c. c #769E2E",
"v. c #768E3C",
"b. c #688341",
"n. c #6F8D5E",
"m. c #788D55",
"M. c #67A25F",
"N. c #6E8266",
"B. c #7F817A",
"V. c #7CA06A",
"C. c #81A53C",
"Z. c #8EB833",
"A. c #87A05E",
"S. c #858167",
"D. c #918B7B",
"F. c #909075",
"G. c #97B26A",
"H. c #80C878",
"J. c #B0CD78",
"K. c #6E7882",
"L. c #868786",
"P. c #8D8B8E",
"I. c #999586",
"U. c #8C9090",
"Y. c #989694",
"T. c #A19F93",
"R. c #ABA387",
"E. c #ABA98A",
"W. c #A9A98E",
"Q. c #ABA89F",
"!. c #B9B092",
"~. c #9FA0A3",
"^. c #A9ABAF",
"/. c #B8B3AD",
"(. c #C2B99D",
"). c #C3BFBA",
"_. c #C4C1A3",
"`. c #CDC4A5",
"'. c #D9D0B4",
"]. c #DFDAB8",
"[. c #D4CEC2",
"{. c #DBD7CA",
/* pixels */
"d c c c c c L L R L L L d = Q.u.#.G &.<.<.u.<.#.r.r.r.<.G &.#.G z c c c G d c #.R L L L L c c L L c ",
"x.c P P P L R Q L b.b.Q L d {.G.A.A.G.T.I.R.A.A.A.I.P.I.S.S.z.S.b.Q m.S.L d I.G.m.b.v.b.Q P c L c P ",
"v.c P P x.b.P b.P S.D.m.L d {.I.A.G.G.T.I.A.G.:.A.Q.Q.~.I.z.D.I.I.G.A.A.L z J.I.m.b.A.m.b.v.v.b.L c ",
"m.c P x.x.v.Q m.m.D.I.D.&.d ).D.z.e.Q.I.P.I.@./ e.~.Q.T.I.3.D.I.T.T.A.A.&.z G.m.b.T.Q.T.A.A.A.v.b.v.",
"v.c m.m.A.m.m.D.I.T.Q.Y.r.d G.<.r.~ s.3.z.z.~ w.~ T.T.3.y.~ j.D.P.D.q.e.( z A.m.A.D.T.Q.T.A.A.m.m.v.",
"c.c Q.T.I.b.S.I.T.Q.d.e.( q J.m.m.~ w./ e.e./ K./ 3.o./ w.~ I.Y.e.q./ ~ ( d A.v.m.D.Q.^.^.Q.G.v.v.v.",
"v.c Q.Q.I.m.S.D.T.Q.a.~ / / N.E =.~ K.w./ ~ 7.K.7.~ ~ w.K.~ e.a./ 8.7.~ u.d C.b.m.m.A.A.^.^.T.A.I.T.",
"G.L T.Q.T.z.z.D.Y.~.Q.e./ 7.w.8./ ~ K.K.w.~ / K.w.~ / K.K.~ / 8.w.w./ t.#.d C.m.I.I.R.G./.Q.T.T.Q.T.",
"A.c D.T.T.I.D.I.Y.I.T.G.~ / w.K.w.8.w.K.K./ ~ K.K./ w.K.K./ 7.K.K.7.~ =.` q J.T.A.I.R.)./.G.A.A.A.m.",
"C.p S.I.T.T.Y.Y.I.m.G.:.~ ~ / w.K.K.w.w.K.w./ K.K.7.K.K.w.7.w.K.K.7.~ ~ / 8.U.B.4.Q.).).Q.G.A.x.b.b.",
"x.d A.G.J.{.{.{.).G.1.8.8./ / / w.K.K./ w.K.w.w.K.7.K.w.7./ K.K.w./ / / w.K.w./ 4.(.{.[.J.(.'.(.A.C.",
"p p z z ) _ _ _ ^ N w.K.K.w.w./ / w.K./ / w.8.7.w.7.8.7./ / K.w./ / w.w.K.w./ ~ 5 9 = = = = = = z z ",
"p d x.L <.S.r.&.S / w.w.w.K.K.w./ 7.w./ ~ ! w / 7./ w ! ~ / 8./ / w.K.K.w.! w ~ ~ q d d d L c z z d ",
"L d J.A.A.G.G.m.S.t./ ! / 8.8.w.7./ / / / ! w / w./ w ! / 8.8.8.7.8.8.8./ ! w ~ [ b.x.x.Q v.b.c z d ",
"L p J.A.D.Q./.a.9.k.w ! / ~ ~ / 7./ 8.w.7./ ~ w.K.7.w / 7.w.K.K.w.8.~ 8.8.7./ ~ D.m.v.x.v.A.b.Q c d ",
"L d J.A.D.I.Q.a.~ ~ w 7.w.8./ ~ / w.K.w./ w / K.K.7.w w / / 8.8.w.w./ 8.K.w.w./ e.m.D.A.I.z.m.v.c d ",
"c d G.D.f.S.D.Y.t.~ / w.K.w./ / 8.K.w./ / w 7.K.w./ w ! / / w w / / / / w.w.K.w./ h.p.Q.I.A.m.P L d ",
"L c G.I.D.m.A.Q.g./ 7.K.w./ / w.K.w./ / w.~ / w.7.~ 2 7.w.w.! w ~ ~ w / / / 8.8./ / 4.R.D.m.m.Q L d ",
"P c J.R.Q.Q.!.k./ 7.w.8./ / 7.8.8.! w w.K.~ w 7./ w 2 / K.K.w./ ~ ~ w w w ~ w w w 4.c.m.D.A.m.Q L d ",
"P d G.m.Q./.g.~ / / 8.~ w ! / ~ ~ w ! K.w.w 2 ! ~ 2 2 w w.w.K.w./ ~ / ..! / w 2 %.G.A.v.b.b.P P R d ",
"P d G.A.G.R.t.e.w w w / ! ! ~ / ~ / w.w./ w 2 w / w 2 w / ! 8.K.7.8./ K.w.w./ w ] A.A.v.b.Q P P L d ",
"L p A.A.G.G.G.G.%.2 w w.w.7./ w./ w.w.! / ~ 2 / w./ w / ~ w w ..7.w.8.w.K.K.w./ ! N.:.G.A.Q P P L d ",
"P p m.(.J.J.J.A.%.w / K.8.7.w.K./ K./ w 7.~ w 7.K.7.~ 7./ / w w ! / K.w.8.8.8./ / / 4.J.J.C.C.C.P d ",
"p $ d d d d d q ! / w.8./ w.K.w.w w.w / w.w ~ w.w./ w 7.w.w./ ~ w ~ w.K./ ~ ~ w q q d d d d d d d d ",
"L d L &.&.c b / / / 8.~ w.K.w./ w ! w w.K.2 w K.7.w w / w.K.w./ ~ ~ / K.w.~ w 2 R &.<.&.G &.&.&.&.R ",
"P d b.b.m.<.' ;. .w ~ ~ K.w./ ~ / w / K...2 2 w./ 2 ~ w ! w.w.w./ ~ ~ w.K.8.! w J D.A.S.b.m.<.b.<.m.",
"x.c S.S.m.m.m.m.S.2 w 8.w./ ~ / 7./ w...w 2 w / w w ~ 2 w ! / w.7./ 3 / w...! w X.m.m.D.z.D.I.m.Q S.",
"b.L D.I.I.I.Y.I.O.w ! ..! ~ / / / ! 8.w ~ w / ~ w ~ / w ~ w ~ ! / / e ~ ! 2 Z 0.T.I.I.I.P.Y.Q.I.z.z.",
"x.c Y.T.Q.T.T.Y.X.w ! 2 w 8./ ~ w w / ~ ~ / 7./ ~ / 7./ ~ ~ / w w ~ / 8...w {.Q.Q.T.z.D.I.Y.Q.Q.Q.T.",
"v.c ~.Q.Q.T.I.I.I.+.0.w 8.w.w ~ ! / / ~ w 7.w.7.w 7.w.7.w ~ / / ! ~ w w.w./ {.Q.T.T.D.P.D.I.T.Q.Q.Q.",
"C.c Q.T.T.P.z.D.I.T.T./ 8.! w / w./ ~ w 2 7.K.7.2 7.K.7.2 w ~ / w./ w ! ! ! L.T.I.I.T.I.z.z.z.I.T.T.",
"C.c ~.T.D.m.f.z.S.D.t.! w 2 ~ w.8.w / w w ! w.! w ! w.! w w / w 8.w.~ 2 o o 3 T.I.I.T.I.z.z.j.D.I.T.",
"C.c T.I.A.b.S.S.Q l j > > > ~ w.w 2 / w / w ! w / w ! w / w / 2 w w.~ > u u u I A.A.I.Y.I.I.P.I.I.T.",
"v.c m.A.A.m.m.b.x u g g u g j ! D D w >./ w 2 ~ 7.~ 2 w / >.w D D ! j g u g g u { I.I.T.T.T.A.D.D.m.",
"P c A.G.(.J.A.G.@ g g g u u g > | 6.>._.w i.>.w / w >.i.w _.>.6.| > g u u g g g @ J.J.J.J.).J.G.G.G.",
"p p = d d d d d @ g u g u @ u u V 6.W.].i.]._.>.w >._.].i.].W.6.V u u @ u g u g @ d d d d d d d = = ",
"c $ <.<.&.u.z.l.M u m u n @ : : H 6.W.].].].].W.>.W.].].].].W.6.C ; ; @ 7 u & u 8 z z G z G d d d # ",
"p p `.A.A.D.Q.T.T.*.T.} I.K <.m.S.6.W.E.E.E._.W.W.W._.E.E._.W.6.<.<.<.h r.h R n j.z.S.m.m.m.<.R L = ",
"p p J.A.m.A.Q.T.T.T.Q.~.T.T.T.I.I.| W.F.F.F.W.W._.W.W.F.F.W.W.6.D.D.I.T.T.I.D.z.I.Q.G.R.A.A.A.m.L d ",
"P c J.m.Q S.Q.T.Y.T.Q.Q.Q.Q.Q.~.Y.V W._._._._._.]._._._._.W.F.| D.z.P.T.T.Y.P.D.I.T.T.Q.Q.T.m.b.&.z ",
"P c J.m.<.I.Q.T.T.T.~.~.Q.^./.Q.T.2.F._.].].].].].].].E.E.F.U V D.u.z.D.P.P.I.I.P.P.T.Q.Q.Q.I.D.&.d ",
"P p !.Q P S.T.T.T.^.^.^.Q.^./.^.Q.T.6.W.].].].]._.].E.V.V.n.g 5.I.D.P.I.I.I.Y.T.Y.Y.T.Q.Q.Q.T.D.&.d ",
"Q p J.m.&.S.A.T./.).)./.^.^.^./.Q.R.6.F.E.E.E.E.W.E.6.H.H.M.g Q.Q.Q.Q.Q.~.T.T.~.Q.Q.Q.Q.Q.Q.P.z.&.d ",
"b.p J.D.D.D.A.T././.Q.!.Q.Q.Q.Q.A.v.A F F F F F ,.F F -.-.Y i Q.Q.T.T.Q.T.Y.D.D.T.T.T.Q.Q.Q.I.D.<.d ",
"x.p Z.A.I.A.Q A.I.I.A.A.A.G.A.G.b.x.f + , , + + + , , , , , 0 T.T.D.m.T.T.D.<.<.m.A.A.I.I.D.D.S.<.d ",
"P p G.m.v.v.m.m.v.v.v.v.C.C.v.b.x.v.A.X , , + X X , r r , a W I.I.A.m.I.A.A.m.m.m.m.b.A.m.b.m.Q &.z ",
"p # C.c.C.G.G.G.C.C.C.C.C.G.J.J.J.G.J.T + , , X X , y y Y g A.J.G.A.Q.(.C.(.).G.J.G.G.!.J.A.G.J.m.d ",
"$ # b.c c c c d d d d = = = z z z d z z . < < O . < t t $.- d d d d d d d d d d d d z _ _ G c c c d ",
"d d p $ $ $ $ $ $ p $ p d p $ p d c c d % * 1 1   4 6 6 4   d c c d d d # # $ $ d p c d d p p p d c ",
"v.P P P P c p p p c L L c p c.x.x.x.x.P x.x.P P s k 1 k v B c.c.c.v.P L L p L P x.x.x.x.v.v.x.x.x.c "
};
