/* XPM */
static char *result[] = {
/* columns rows colors chars-per-pixel */
"50 50 220 2 ",
"   c #030304",
".  c #08070A",
"X  c #0B070D",
"o  c #12180A",
"O  c #0B0612",
"+  c #0D0916",
"@  c #140B15",
"#  c #120C1B",
"$  c #1A0F1C",
"%  c #191517",
"&  c #1B121B",
"*  c #21101D",
"=  c #102004",
"-  c #153105",
";  c #1A3C02",
":  c #1D2416",
">  c #1D2C14",
",  c #24261A",
"<  c #252A1B",
"1  c #28331B",
"2  c #2D3C1B",
"3  c #303E1D",
"4  c #170D23",
"5  c #1D1423",
"6  c #1C1923",
"7  c #231324",
"8  c #281427",
"9  c #241B24",
"0  c #2B1D26",
"q  c #2B162C",
"w  c #25192A",
"e  c #2B1B2B",
"r  c #351D2D",
"t  c #271931",
"y  c #2E1A31",
"u  c #331C33",
"i  c #3A1E34",
"p  c #361E39",
"a  c #381E3B",
"s  c #2D2325",
"d  c #2D2C24",
"f  c #2D222B",
"g  c #2B2A29",
"h  c #33242C",
"j  c #36282B",
"k  c #332B2D",
"l  c #2E3820",
"z  c #3A332E",
"x  c #37382A",
"c  c #2B2537",
"v  c #342234",
"b  c #392235",
"n  c #352C32",
"m  c #3B2C35",
"M  c #36233A",
"N  c #3C233B",
"B  c #332C3A",
"V  c #3C2B3A",
"C  c #3C3533",
"Z  c #3C3838",
"A  c #41243D",
"S  c #442B3B",
"D  c #413635",
"F  c #433B34",
"G  c #43353D",
"H  c #433B3C",
"J  c #493E3D",
"K  c #255507",
"L  c #2D4617",
"P  c #2E411B",
"I  c #35481D",
"U  c #39541F",
"Y  c #394926",
"T  c #3B4629",
"R  c #3B5620",
"E  c #3F502E",
"W  c #434928",
"Q  c #434B2C",
"!  c #445728",
"~  c #424434",
"^  c #484A37",
"/  c #4B4C34",
"(  c #4A443C",
")  c #465234",
"_  c #495636",
"`  c #4D543B",
"'  c #4B5A39",
"]  c #515734",
"[  c #555839",
"{  c #476625",
"}  c #496425",
"|  c #566C2C",
" . c #517B26",
".. c #5D722D",
"X. c #5D6035",
"o. c #59683D",
"O. c #5C733A",
"+. c #616E31",
"@. c #677634",
"#. c #627A3E",
"$. c #687B39",
"%. c #3B2841",
"&. c #412542",
"*. c #432A43",
"=. c #472C47",
"-. c #4A2E4A",
";. c #453244",
":. c #443A41",
">. c #4A3C43",
",. c #4B3349",
"<. c #50364F",
"1. c #4D3650",
"2. c #573A54",
"3. c #3C4041",
"4. c #474546",
"5. c #4D4444",
"6. c #4E494B",
"7. c #524C43",
"8. c #55494B",
"9. c #544B4B",
"0. c #4C5349",
"q. c #595845",
"w. c #55524D",
"e. c #574654",
"r. c #5B5355",
"t. c #595658",
"y. c #615E48",
"u. c #64445E",
"i. c #645A57",
"p. c #625C5A",
"a. c #5A6545",
"s. c #5A6646",
"d. c #5E6B45",
"f. c #63684A",
"g. c #657549",
"h. c #69764B",
"j. c #6B7B4D",
"k. c #69645C",
"l. c #71675D",
"z. c #6D7953",
"x. c #75765A",
"c. c #5E5E63",
"v. c #684964",
"b. c #725A6B",
"n. c #6A6661",
"m. c #6B6865",
"M. c #726D66",
"N. c #736669",
"B. c #746C6B",
"V. c #797567",
"C. c #77726B",
"Z. c #787877",
"A. c #817C69",
"S. c #827574",
"D. c #867F76",
"F. c #5C902C",
"G. c #769E2E",
"H. c #6D8637",
"J. c #768E3C",
"K. c #739334",
"L. c #688341",
"P. c #6F814F",
"I. c #728F49",
"U. c #778757",
"Y. c #758B53",
"T. c #788D55",
"R. c #7C9059",
"E. c #7E8766",
"W. c #81A53C",
"Q. c #8EB833",
"!. c #899E57",
"~. c #859D5D",
"^. c #8AAC4B",
"/. c #87A05E",
"(. c #858167",
"). c #8A836E",
"_. c #889F60",
"`. c #85807B",
"'. c #8A8478",
"]. c #958C76",
"[. c #918B7B",
"{. c #8CA265",
"}. c #92AA68",
"|. c #97B26A",
" X c #99B46E",
".X c #9EB773",
"XX c #A1B86E",
"oX c #A3BD73",
"OX c #ABC675",
"+X c #B0CD78",
"@X c #7A8183",
"#X c #8D8B8E",
"$X c #938E83",
"%X c #938D8B",
"&X c #999586",
"*X c #989487",
"=X c #95928B",
"-X c #8F8E92",
";X c #969492",
":X c #989694",
">X c #9E9B91",
",X c #A29C88",
"<X c #A19F93",
"1X c #ABA387",
"2X c #A7A49B",
"3X c #ABA89F",
"4X c #B9B092",
"5X c #9D9EA1",
"6X c #9FA0A3",
"7X c #AAAAA7",
"8X c #A9ABAF",
"9X c #B3ADA8",
"0X c #B6B3A8",
"qX c #B8B3AD",
"wX c #C2B99D",
"eX c #C3BFBA",
"rX c #B5D081",
"tX c #CEC7B2",
"yX c #D4CEC2",
"uX c #DBD7CA",
/* pixels */
"P R R R R R } } [ { } } P < 7XM.i._ a.j.h.M.h.t.l.n.n.j._ s.t.' T R R R _ P R i.[ } } } { U U { { R ",
"F.R  . . .} X.@.} H.L.@.} L uX|././.|.<X&X1X{././.&X#X&X(.(.`.(.H.@.T.(.{ Y &X|.T.H.J.L.@. .R { R  .",
"J.R  . .F.L. .L. .(.[.T.} P uX&X/.|.|.<X[._.|.~./.3X3X6X&X`.].&X$X|.~.~.} E rX=XY.H.{.T.L.J.J.H.} U ",
"T.R  .F.F.J.@.T.T.[.&X[.a.1 tXZ.`.&X3X$Xr.&XD.k.&X6X3X<XZ.'.[.).S.<X{.~.s.T {.U.L.2X3X>X/./.{.J.L.J.",
"J.R T.T./.T.T.[.&X<X3X;Xk.d }.( k.'.&XD.0 D.M.9.D.<X<X[.V.9.Z.M.r.[.#X&X` x U.f.{.[.<X7X<X/./.T.T.J.",
"G.R 3X<X&XL.(.&X<X7X8X&Xa.n OXV T.[.<X[.h [.>.M.M.[.(.L.Y.J N.B.i.#X*X<XC 2 q.X.T.$X2X8X8X3X|.J.J.J.",
"J.R 3X3X&XT.(.[.<X7X7X<Xs.g f.j Y.&X&X*Xj S.r.D.n.n.h.H.T.h.m S.b.&X&X2XS d F #.T.R.{./.8X8X2X/.&X<X",
"|.} <X3X<X`.D.[.:X>X2X&Xh.2 q.0 i.8.@.T.0 [ 8.&X5.h.@.W Y.$.8 i.k.<XC.c.r s +.Y.&X$X1X X0X3X>X<X3X<X",
"/.R [.2X<X&X[.&X:X&Xp.|.@.d {.` q.b ^ j.8 h C r.T U.J.) ~ x 0 j ^ [.G ^ G 1 {.S.{.k.,XeXqX|./././.T.",
"W.K (.[.<X<X:X:X&XT.m ~.T m |.J.#.V h q.8 h.Y.r.R./.+XoXa.d.U.b j f.u X.' P M.l. X%.qXtX3X.X/.F.L.L.",
"F.P /.|.+XuXuXuXeX|.[ F 2 m Y.a.~.` u i j _ T ) P P T _ Q X.a.T u u z G.W > x o.P.H tXyX+XwXtXwX/.W.",
"K K T T 4.6.6.9.4.L 3 s C j x 9 P x h A j P P > > : = > < 3 2 1 A u : < & o % s f < > > > 1 < > T T ",
"K P F.} j.(.m.a.[ R W 3 h b C e } T x b A ] } _ ; 9  .! x @.a.n a z } X.q D h v g 2 l L P ! R T T P ",
"} P +X/./.{.|.T.(.*XF U.r./ f N 8.T.T.e *.k.T.L.a.j K.#.C a.Y.M y x.U.[ A r ^ / #.o.) F./ W H.R Y P ",
"} K +X/.).C.qXZ.E.qXb *XM.<Xp.&.y V.(.0 b ).&X(.Y j W O.z j [.a r D.A.v N [ #.j.k.` ) } h d.L.@.R P ",
"} P +X/.'.J 3X5.@X9Xh i.m 3X7Xb u l.k.i v >X&Xk.n d / T m t.#X,.N c.r.N h 7X&Xr.S D C.G m D.T.J.R P ",
"R P |.[.C.( p.G D.<X7.H s -X3X%.u w.B N t.D.A.B ^ P K.^ S l.D.C.A S Z N :.8X2Xv 5.S Z.S H ~.T. .} P ",
"} U |.&XN.h.z m Z.9X6.Z.9.5.n.m y ,.u y V.A.} V a.P /.T.S r.$XD.u u N u :.N.r.m ;XN.F a >.Y.T.X.} P ",
" .R +X1XH 3X5.G ;.N.n 6Xk.x %.~ j p &.i 4.[.H V n.P W.j.S m &X>.p A v v 8.5.H m <X!.h r J f.Y.~ } P ",
" .P |.T.m %XZ N.i.r v 9X:.j.d.V.C.f a &.5 '.e v T 2 a.` A r '.* N M e C.%XD.].>.q.y.i / / C ! H [ P ",
" .P |./.h.8.8 S.=X<.b q.n U.`.r.#X:.7 -.q 5.v t.g x J ( l.r :.* *.w s >X=Xq.<Xj.u b D H.#.i m ! } P ",
"} K /.Y.~.f.h [ }.U.D i j L.j.z ( 6.7 -.a e :.-XY B v V.Z.v * u %.5 P 6.4.W /.] A j h.}.[ i Q  .R P ",
" .K T.V.R.XXf.h y.XX| i h ..G.H.! ].5 *.-.p e.4X~.v w @.U % p =.M 5 }.g.j.|.@.k b f.{.h.u / K.J.U P ",
"K ; 3 < 1 P 3 d i s , 8 *.f < , 1 d * a =.%.w : 2 p 9 : , e 1.%.b & , , , < s M N , , i h 2 I l , 3 ",
"} P ! C J Q T C u r & 7 S A 7 * 8 8 8 u a %.M 8 k q 8 s 7 *.%.u u 8 7 * 8 8 b M u 7 8 N m ( ` J S / ",
" .P #.` q.f f q 0 ( 9.` F i q x ~ x ~ f q u a u q e r e M N y 7 < x z ~ s 8 u ) ` 8.` 0 9 e r ( 7.j.",
"F.R (.A.j.X Q ^ 7.Z.[.0.z 8 * d.x.j.S.m.7 u u N =.=.-.=.N u e $ m.`.$XO.U & e 9.i.h.j.w.5.7.X h.+.(.",
"H.} [.*X&X. ;X*X#X&Xq.g f n g.U.C.C.2X7Xw u p -.u.2.2.u.=.M e 6 <X(.P.{ } : T G H H &X&X#X:X  *XD.D.",
"F.U ;X2X3Xw.>X:X&X<Xg k.r.3.+X(.r.w.7X:XB p N <.b.u.v.b.-.A v 9 #X[.[ I ' Y 0X`.Z.@ `.[.&X:Xw.3X3X<X",
"J.U 6X3X3X<X&X&X&X<Xp.=XM.T +XT.i.t.8Xn.:.a N <.v.v.v.v.-.A v 9 &X#Xn.T s.3.uX3X>Xx [.#X[.=X<X7X3X3X",
"W.R 7X>X2X#X`.].&X<X=X<XM.Y +XJ.l.4.#X% 8.a 5 e 2.2.2.-.9 q M 9 =XM.7.w.s.4.uX2X&XV.2X&X'.D.D.&X<X<X",
"W.R 5X1X'.Y.Z.D.(.[.<X=XB.6.+X~.$Xp.n.g V N + X q 2.,.9   X N 5 r.t.k.M.f.E tX>X&X&X>X&XD.'.Z.].&X<X",
"W.R 2X&X/.H.A.(.@.h.(.D.k.T +X1X1X<X`.M.@ N #   . =.=.X   X N $ a.E.{.U.x.) yX X{.R.&X:X&X&X#X&X*X2X",
"J.R Y././.T.T.L.L.L. .j._ P T.4X|.|./.J.@ N @ & 9 =.=.s & & N $ R.E.{.Y.z.) qX4X&X&X=X<X2X<X/.[.[.T.",
" .U /.|.wX+X/.|.|.W.W.@.} P _ /.W.+XW.|.@ A ;.V =.&.&.A ,.S N # j.!..X}.R.' s.yX+X+X+X+X+XeX+X|.|.|.",
"K K > L P 2 L 3 P P P P P P P P P T P P @ A 2.=.M N M M ,.2.;.9 Y _ ' E E _ P T L P P P P P P L > > ",
"U ; g.h.o.M.D.S.C.Z.M.C.n.s.R R a.a.R a.@ N *.=.& & & & *.2.;.f s.) _ ` 0.E P T 6.T Y _ Y _ P P P = ",
"K K tX/./.].2X<X>X<X<X;X&X[.j.T.A.'.(.[.@ y N *.O & 5 @ <.1.c g V.U.j.d.m.s.X.n.Z.`.(.T.T.T.h.X.} > ",
"K K +X/.T./.7X<X2X>X3X6X<X<X<X&X&X[.[.&Xw.5 u N e N =.b e.B f f.[.>X&X<X>X=X[.D.&X7X|.1X/./.{.Y.} P ",
" .U +XT.@.(.3X2X:X<X3X3X3X3X3X6X:X[.[.[.V.C 5 y p =.e.N %.B t.>X&X$X#X<X<X:X-X[.=X1X<X7X2X<XT.L.a.Y ",
" .U +XT.h.&X3X<X<X<X6X6X7X8XqX3X<X#X[.(. .j.6 w y M e.y 6 Z '.3X&XC.`.[.#X#X&X=X#X#X<X3X3X3X&X[.a.P ",
" .K 4X@. .(.<X<X<X8X8X8X7X8XqX8X3X<X#X(.Y.D.Z 6 y y 1.e + 4.[.2X&X].#X&X&X&X:X<X:X:X<X3X3X3X<X[.a.P ",
"@.K +XT.a.(./.<XqXtXqXqX8X7X8XqX2X1X{.T.[.(.6.c t y ;.M + a.&X3X3X3X3X3X6X<X<X6X3X3X3X3X3X3X#X`.a.P ",
"L.K +X[.[.[.!.2XqXqX7X4X7X3X3X3X/.I.H.L.T.L.0.g t u B %.6 t.&X3X3X2X<X7X<X:X[.[.<X<X<X3X3X3X&X[.h.P ",
"F.K Q./.&X/.@./.&X&X/././.|./.|.L.F.F.@.#.Y.E # %.p t t 6 q.[.2X>X[.T.>X<X[.h.h.T././.&X&X[.[.(.h.P ",
" .K |.T.J.J.T.T.J.J.J.I.G.^.J.H.F.J./.L.I.Y.| O c %.t 4 . { T.=X&X/.T.&X{.{.T.T.T.T.L./.Y.L.T.@.a.T ",
"K = W.G.W.|.|. XW.W.^.G.G.|.+X+X+X|.rXoX^.rX{.+ 4 t t + . R.{.+X|./.3XwXG.wXtX|.+X|.|.4X+X/.|.+XT.P ",
"; = L.R R R R P P P P > > > T T T P 0.` P T 6 %.4 O + 4 # o L P P P P L P P 2 P P P Y 6.6._ R R R P ",
"P P K ; ; ; ; ; ; K ; K L K ; K P R O.L K ; O %.6 . . + + . P R R L P P = = ; ; P K R P P K K K P R ",
"J. . . . .R K K K R } } R K G.F.F.F.I.H.F.F.Y Y E L - > L R G.G.G.J. .} } K }  .F.F.F.F.J.J.F.F.F.R "
};
